# Blender v2.80 (sub 75) OBJ File: 'BigDoor.blend'
# www.blender.org
mtllib bigdoor.mtl
o Cube
v 0.108207 2.026753 1.606631
v 0.108207 2.026753 -1.606631
v 0.108207 -2.026753 1.606631
v 0.108207 -2.026753 -1.606631
v -0.540921 2.026753 1.606631
v -0.540921 2.026753 -1.606631
v -0.540921 -2.026753 1.606631
v -0.540921 -2.026753 -1.606631
vt 0.375000 0.000000
vt 0.625000 0.000000
vt 0.625000 0.250000
vt 0.375000 0.250000
vt 0.375000 0.250000
vt 0.625000 0.250000
vt 0.625000 0.500000
vt 0.375000 0.500000
vt 0.625000 0.750000
vt 0.375000 0.750000
vt 0.625000 0.750000
vt 0.625000 1.000000
vt 0.375000 1.000000
vt 0.125000 0.500000
vt 0.375000 0.500000
vt 0.375000 0.750000
vt 0.125000 0.750000
vt 0.625000 0.500000
vt 0.875000 0.500000
vt 0.875000 0.750000
vn 0.0000 -0.0000 1.0000
vn 0.0000 -1.0000 0.0000
vn -1.0000 0.0000 0.0000
vn 0.0000 0.0000 -1.0000
vn 1.0000 0.0000 0.0000
vn 0.0000 1.0000 0.0000
usemtl Material
s off
f 1/1/1 5/2/1 7/3/1 3/4/1
f 4/5/2 3/6/2 7/7/2 8/8/2
f 8/8/3 7/7/3 5/9/3 6/10/3
f 6/10/4 2/11/4 4/12/4 8/13/4
f 2/14/5 1/15/5 3/16/5 4/17/5
f 6/18/6 5/19/6 1/20/6 2/11/6
o Cube.001
v -0.276054 2.203802 -1.746980
v -0.276053 2.203802 1.746980
v -0.276054 -2.203802 -1.746980
v -0.276053 -2.203802 1.746980
v 0.181600 2.203802 -1.746980
v 0.181602 2.203802 1.746980
v 0.181600 -2.203802 -1.746980
v 0.181602 -2.203802 1.746980
vt 0.375000 0.000000
vt 0.625000 0.000000
vt 0.625000 0.250000
vt 0.375000 0.250000
vt 0.375000 0.250000
vt 0.625000 0.250000
vt 0.625000 0.500000
vt 0.375000 0.500000
vt 0.371063 0.224392
vt 0.621063 0.224392
vt 0.621063 0.474392
vt 0.371063 0.474392
vt 0.375000 0.750000
vt 0.625000 0.750000
vt 0.625000 1.000000
vt 0.375000 1.000000
vt 0.125000 0.500000
vt 0.375000 0.500000
vt 0.375000 0.750000
vt 0.125000 0.750000
vt 0.625000 0.500000
vt 0.875000 0.500000
vt 0.875000 0.750000
vn 0.0000 -0.0000 -1.0000
vn 0.0000 -1.0000 -0.0000
vn 1.0000 0.0000 -0.0000
vn 0.0000 0.0000 1.0000
vn -1.0000 0.0000 0.0000
vn 0.0000 1.0000 0.0000
usemtl Material.001
s off
f 9/21/7 13/22/7 15/23/7 11/24/7
f 12/25/8 11/26/8 15/27/8 16/28/8
f 16/29/9 15/30/9 13/31/9 14/32/9
f 14/33/10 10/34/10 12/35/10 16/36/10
f 10/37/11 9/38/11 11/39/11 12/40/11
f 14/41/12 13/42/12 9/43/12 10/34/12
o Cube.002
v -0.774322 1.165040 0.419840
v -0.774322 1.531689 0.419840
v -0.774322 1.165040 -0.419840
v -0.774322 1.531689 -0.419840
v -0.120095 1.165040 0.419840
v -0.120095 1.531689 0.419840
v -0.120095 1.165040 -0.419840
v -0.120095 1.531689 -0.419840
vt 0.375000 0.000000
vt 0.625000 0.000000
vt 0.625000 0.250000
vt 0.375000 0.250000
vt 0.625000 0.500000
vt 0.375000 0.500000
vt 0.625000 0.750000
vt 0.375000 0.750000
vt 0.625000 1.000000
vt 0.375000 1.000000
vt 0.125000 0.500000
vt 0.125000 0.750000
vt 0.875000 0.500000
vt 0.875000 0.750000
vn -1.0000 0.0000 0.0000
vn 0.0000 0.0000 -1.0000
vn 1.0000 0.0000 0.0000
vn 0.0000 0.0000 1.0000
vn 0.0000 -1.0000 0.0000
vn 0.0000 1.0000 0.0000
usemtl orange2
s off
f 17/44/13 18/45/13 20/46/13 19/47/13
f 19/47/14 20/46/14 24/48/14 23/49/14
f 23/49/15 24/48/15 22/50/15 21/51/15
f 21/51/16 22/50/16 18/52/16 17/53/16
f 19/54/17 23/49/17 21/51/17 17/55/17
f 24/48/18 20/56/18 18/57/18 22/50/18
o Cube.003
v -0.868091 -0.513007 0.349479
v -0.868091 0.669256 0.349479
v -0.868091 -0.513007 -0.349479
v -0.868091 0.669256 -0.349479
v -0.213863 -0.513007 0.349479
v -0.213863 0.669256 0.349479
v -0.213863 -0.513007 -0.349479
v -0.213863 0.669256 -0.349479
vt 0.375000 0.000000
vt 0.625000 0.000000
vt 0.625000 0.250000
vt 0.375000 0.250000
vt 0.625000 0.500000
vt 0.375000 0.500000
vt 0.625000 0.750000
vt 0.375000 0.750000
vt 0.625000 1.000000
vt 0.375000 1.000000
vt 0.125000 0.500000
vt 0.125000 0.750000
vt 0.875000 0.500000
vt 0.875000 0.750000
vn -1.0000 0.0000 0.0000
vn 0.0000 0.0000 -1.0000
vn 1.0000 0.0000 0.0000
vn 0.0000 0.0000 1.0000
vn 0.0000 -1.0000 0.0000
vn 0.0000 1.0000 0.0000
usemtl orange2.001
s off
f 25/58/19 26/59/19 28/60/19 27/61/19
f 27/61/20 28/60/20 32/62/20 31/63/20
f 31/63/21 32/62/21 30/64/21 29/65/21
f 29/65/22 30/64/22 26/66/22 25/67/22
f 27/68/23 31/63/23 29/65/23 25/69/23
f 32/62/24 28/70/24 26/71/24 30/64/24
o Cube.004
v -0.774322 -1.494593 0.419840
v -0.774322 -1.127945 0.419840
v -0.774322 -1.494593 -0.419840
v -0.774322 -1.127945 -0.419840
v -0.120095 -1.494593 0.419840
v -0.120095 -1.127945 0.419840
v -0.120095 -1.494593 -0.419840
v -0.120095 -1.127945 -0.419840
vt 0.375000 0.000000
vt 0.625000 0.000000
vt 0.625000 0.250000
vt 0.375000 0.250000
vt 0.625000 0.500000
vt 0.375000 0.500000
vt 0.625000 0.750000
vt 0.375000 0.750000
vt 0.625000 1.000000
vt 0.375000 1.000000
vt 0.125000 0.500000
vt 0.125000 0.750000
vt 0.875000 0.500000
vt 0.875000 0.750000
vn -1.0000 0.0000 0.0000
vn 0.0000 0.0000 -1.0000
vn 1.0000 0.0000 0.0000
vn 0.0000 0.0000 1.0000
vn 0.0000 -1.0000 0.0000
vn 0.0000 1.0000 0.0000
usemtl orange2.002
s off
f 33/72/25 34/73/25 36/74/25 35/75/25
f 35/75/26 36/74/26 40/76/26 39/77/26
f 39/77/27 40/76/27 38/78/27 37/79/27
f 37/79/28 38/78/28 34/80/28 33/81/28
f 35/82/29 39/77/29 37/79/29 33/83/29
f 40/76/30 36/84/30 34/85/30 38/78/30
o Cube.005
v -0.669752 1.695690 0.194605
v -0.669752 1.873052 0.194605
v -0.669752 1.695690 -0.194605
v -0.669752 1.873052 -0.194605
v -0.015524 1.695690 0.194605
v -0.015524 1.873052 0.194605
v -0.015524 1.695690 -0.194605
v -0.015524 1.873052 -0.194605
vt 0.375000 0.000000
vt 0.625000 0.000000
vt 0.625000 0.250000
vt 0.375000 0.250000
vt 0.625000 0.500000
vt 0.375000 0.500000
vt 0.625000 0.750000
vt 0.375000 0.750000
vt 0.625000 1.000000
vt 0.375000 1.000000
vt 0.125000 0.500000
vt 0.125000 0.750000
vt 0.875000 0.500000
vt 0.875000 0.750000
vn -1.0000 0.0000 0.0000
vn 0.0000 0.0000 -1.0000
vn 1.0000 0.0000 0.0000
vn 0.0000 0.0000 1.0000
vn 0.0000 -1.0000 0.0000
vn 0.0000 1.0000 0.0000
usemtl metal
s off
f 41/86/31 42/87/31 44/88/31 43/89/31
f 43/89/32 44/88/32 48/90/32 47/91/32
f 47/91/33 48/90/33 46/92/33 45/93/33
f 45/93/34 46/92/34 42/94/34 41/95/34
f 43/96/35 47/91/35 45/93/35 41/97/35
f 48/90/36 44/98/36 42/99/36 46/92/36
o Cube.006
v -0.669752 -1.856102 0.194605
v -0.669752 -1.678740 0.194605
v -0.669752 -1.856102 -0.194605
v -0.669752 -1.678740 -0.194605
v -0.015524 -1.856102 0.194605
v -0.015524 -1.678740 0.194605
v -0.015524 -1.856102 -0.194605
v -0.015524 -1.678740 -0.194605
vt 0.375000 0.000000
vt 0.625000 0.000000
vt 0.625000 0.250000
vt 0.375000 0.250000
vt 0.625000 0.500000
vt 0.375000 0.500000
vt 0.625000 0.750000
vt 0.375000 0.750000
vt 0.625000 1.000000
vt 0.375000 1.000000
vt 0.125000 0.500000
vt 0.125000 0.750000
vt 0.875000 0.500000
vt 0.875000 0.750000
vn -1.0000 0.0000 0.0000
vn 0.0000 0.0000 -1.0000
vn 1.0000 0.0000 0.0000
vn 0.0000 0.0000 1.0000
vn 0.0000 -1.0000 0.0000
vn 0.0000 1.0000 0.0000
usemtl orange2.004
s off
f 49/100/37 50/101/37 52/102/37 51/103/37
f 51/103/38 52/102/38 56/104/38 55/105/38
f 55/105/39 56/104/39 54/106/39 53/107/39
f 53/107/40 54/106/40 50/108/40 49/109/40
f 51/110/41 55/105/41 53/107/41 49/111/41
f 56/104/42 52/112/42 50/113/42 54/106/42
o Cube.007
v -0.742912 1.013090 1.440213
v -0.742912 1.718830 1.440213
v -0.742912 1.013090 1.219090
v -0.742912 1.718830 1.219090
v -0.088685 1.013090 1.440213
v -0.088685 1.718830 1.440213
v -0.088685 1.013090 1.219090
v -0.088685 1.718830 1.219090
vt 0.375000 0.000000
vt 0.625000 0.000000
vt 0.625000 0.250000
vt 0.375000 0.250000
vt 0.625000 0.500000
vt 0.375000 0.500000
vt 0.625000 0.750000
vt 0.375000 0.750000
vt 0.625000 1.000000
vt 0.375000 1.000000
vt 0.125000 0.500000
vt 0.125000 0.750000
vt 0.875000 0.500000
vt 0.875000 0.750000
vn -1.0000 0.0000 0.0000
vn 0.0000 0.0000 -1.0000
vn 1.0000 0.0000 0.0000
vn 0.0000 0.0000 1.0000
vn 0.0000 -1.0000 0.0000
vn 0.0000 1.0000 0.0000
usemtl orange2.005
s off
f 57/114/43 58/115/43 60/116/43 59/117/43
f 59/117/44 60/116/44 64/118/44 63/119/44
f 63/119/45 64/118/45 62/120/45 61/121/45
f 61/121/46 62/120/46 58/122/46 57/123/46
f 59/124/47 63/119/47 61/121/47 57/125/47
f 64/118/48 60/126/48 58/127/48 62/120/48
o Cube.008
v -0.742912 1.013090 -1.201656
v -0.742912 1.718830 -1.201656
v -0.742912 1.013090 -1.422779
v -0.742912 1.718830 -1.422779
v -0.088685 1.013090 -1.201656
v -0.088685 1.718830 -1.201656
v -0.088685 1.013090 -1.422779
v -0.088685 1.718830 -1.422779
vt 0.375000 0.000000
vt 0.625000 0.000000
vt 0.625000 0.250000
vt 0.375000 0.250000
vt 0.625000 0.500000
vt 0.375000 0.500000
vt 0.625000 0.750000
vt 0.375000 0.750000
vt 0.625000 1.000000
vt 0.375000 1.000000
vt 0.125000 0.500000
vt 0.125000 0.750000
vt 0.875000 0.500000
vt 0.875000 0.750000
vn -1.0000 0.0000 0.0000
vn 0.0000 0.0000 -1.0000
vn 1.0000 0.0000 0.0000
vn 0.0000 0.0000 1.0000
vn 0.0000 -1.0000 0.0000
vn 0.0000 1.0000 0.0000
usemtl orange2.006
s off
f 65/128/49 66/129/49 68/130/49 67/131/49
f 67/131/50 68/130/50 72/132/50 71/133/50
f 71/133/51 72/132/51 70/134/51 69/135/51
f 69/135/52 70/134/52 66/136/52 65/137/52
f 67/138/53 71/133/53 69/135/53 65/139/53
f 72/132/54 68/140/54 66/141/54 70/134/54
o Cube.010
v -0.742912 -1.706674 1.440213
v -0.742912 -1.000934 1.440213
v -0.742912 -1.706674 1.219090
v -0.742912 -1.000934 1.219090
v -0.088685 -1.706674 1.440213
v -0.088685 -1.000934 1.440213
v -0.088685 -1.706674 1.219090
v -0.088685 -1.000934 1.219090
vt 0.375000 0.000000
vt 0.625000 0.000000
vt 0.625000 0.250000
vt 0.375000 0.250000
vt 0.625000 0.500000
vt 0.375000 0.500000
vt 0.625000 0.750000
vt 0.375000 0.750000
vt 0.625000 1.000000
vt 0.375000 1.000000
vt 0.125000 0.500000
vt 0.125000 0.750000
vt 0.875000 0.500000
vt 0.875000 0.750000
vn -1.0000 0.0000 0.0000
vn 0.0000 0.0000 -1.0000
vn 1.0000 0.0000 0.0000
vn 0.0000 0.0000 1.0000
vn 0.0000 -1.0000 0.0000
vn 0.0000 1.0000 0.0000
usemtl orange2.008
s off
f 73/142/55 74/143/55 76/144/55 75/145/55
f 75/145/56 76/144/56 80/146/56 79/147/56
f 79/147/57 80/146/57 78/148/57 77/149/57
f 77/149/58 78/148/58 74/150/58 73/151/58
f 75/152/59 79/147/59 77/149/59 73/153/59
f 80/146/60 76/154/60 74/155/60 78/148/60
o Cube.009
v -0.742912 -1.706674 -1.201656
v -0.742912 -1.000934 -1.201656
v -0.742912 -1.706674 -1.422779
v -0.742912 -1.000934 -1.422779
v -0.088685 -1.706674 -1.201656
v -0.088685 -1.000934 -1.201656
v -0.088685 -1.706674 -1.422779
v -0.088685 -1.000934 -1.422779
vt 0.375000 0.000000
vt 0.625000 0.000000
vt 0.625000 0.250000
vt 0.375000 0.250000
vt 0.625000 0.500000
vt 0.375000 0.500000
vt 0.625000 0.750000
vt 0.375000 0.750000
vt 0.625000 1.000000
vt 0.375000 1.000000
vt 0.125000 0.500000
vt 0.125000 0.750000
vt 0.875000 0.500000
vt 0.875000 0.750000
vn -1.0000 0.0000 0.0000
vn 0.0000 0.0000 -1.0000
vn 1.0000 0.0000 0.0000
vn 0.0000 0.0000 1.0000
vn 0.0000 -1.0000 0.0000
vn 0.0000 1.0000 0.0000
usemtl orange2.007
s off
f 81/156/61 82/157/61 84/158/61 83/159/61
f 83/159/62 84/158/62 88/160/62 87/161/62
f 87/161/63 88/160/63 86/162/63 85/163/63
f 85/163/64 86/162/64 82/164/64 81/165/64
f 83/166/65 87/161/65 85/163/65 81/167/65
f 88/160/66 84/168/66 82/169/66 86/162/66
o Cube.011
v -0.742912 0.134969 1.371709
v -0.742912 0.545407 1.371709
v -0.742912 0.134969 1.020064
v -0.742912 0.545407 1.020064
v -0.088685 0.134969 1.371709
v -0.088685 0.545407 1.371709
v -0.088685 0.134969 1.020064
v -0.088685 0.545407 1.020064
vt 0.375000 0.000000
vt 0.625000 0.000000
vt 0.625000 0.250000
vt 0.375000 0.250000
vt 0.625000 0.500000
vt 0.375000 0.500000
vt 0.625000 0.750000
vt 0.375000 0.750000
vt 0.625000 1.000000
vt 0.375000 1.000000
vt 0.125000 0.500000
vt 0.125000 0.750000
vt 0.875000 0.500000
vt 0.875000 0.750000
vn -1.0000 0.0000 0.0000
vn 0.0000 0.0000 -1.0000
vn 1.0000 0.0000 0.0000
vn 0.0000 0.0000 1.0000
vn 0.0000 -1.0000 0.0000
vn 0.0000 1.0000 0.0000
usemtl orange2.009
s off
f 89/170/67 90/171/67 92/172/67 91/173/67
f 91/173/68 92/172/68 96/174/68 95/175/68
f 95/175/69 96/174/69 94/176/69 93/177/69
f 93/177/70 94/176/70 90/178/70 89/179/70
f 91/180/71 95/175/71 93/177/71 89/181/71
f 96/174/72 92/182/72 90/183/72 94/176/72
o Cube.012
v -0.742912 0.134969 -1.043485
v -0.742912 0.545407 -1.043485
v -0.742912 0.134969 -1.395130
v -0.742912 0.545407 -1.395130
v -0.088685 0.134969 -1.043485
v -0.088685 0.545407 -1.043485
v -0.088685 0.134969 -1.395130
v -0.088685 0.545407 -1.395130
vt 0.375000 0.000000
vt 0.625000 0.000000
vt 0.625000 0.250000
vt 0.375000 0.250000
vt 0.625000 0.500000
vt 0.375000 0.500000
vt 0.625000 0.750000
vt 0.375000 0.750000
vt 0.625000 1.000000
vt 0.375000 1.000000
vt 0.125000 0.500000
vt 0.125000 0.750000
vt 0.875000 0.500000
vt 0.875000 0.750000
vn -1.0000 0.0000 0.0000
vn 0.0000 0.0000 -1.0000
vn 1.0000 0.0000 0.0000
vn 0.0000 0.0000 1.0000
vn 0.0000 -1.0000 0.0000
vn 0.0000 1.0000 0.0000
usemtl orange2.010
s off
f 97/184/73 98/185/73 100/186/73 99/187/73
f 99/187/74 100/186/74 104/188/74 103/189/74
f 103/189/75 104/188/75 102/190/75 101/191/75
f 101/191/76 102/190/76 98/192/76 97/193/76
f 99/194/77 103/189/77 101/191/77 97/195/77
f 104/188/78 100/196/78 98/197/78 102/190/78
o Cube.014
v -0.742912 -0.533884 1.371709
v -0.742912 -0.123446 1.371709
v -0.742912 -0.533884 1.020064
v -0.742912 -0.123446 1.020064
v -0.088685 -0.533884 1.371709
v -0.088685 -0.123446 1.371709
v -0.088685 -0.533884 1.020064
v -0.088685 -0.123446 1.020064
vt 0.375000 0.000000
vt 0.625000 0.000000
vt 0.625000 0.250000
vt 0.375000 0.250000
vt 0.625000 0.500000
vt 0.375000 0.500000
vt 0.625000 0.750000
vt 0.375000 0.750000
vt 0.625000 1.000000
vt 0.375000 1.000000
vt 0.125000 0.500000
vt 0.125000 0.750000
vt 0.875000 0.500000
vt 0.875000 0.750000
vn -1.0000 0.0000 0.0000
vn 0.0000 0.0000 -1.0000
vn 1.0000 0.0000 0.0000
vn 0.0000 0.0000 1.0000
vn 0.0000 -1.0000 0.0000
vn 0.0000 1.0000 0.0000
usemtl orange2.012
s off
f 105/198/79 106/199/79 108/200/79 107/201/79
f 107/201/80 108/200/80 112/202/80 111/203/80
f 111/203/81 112/202/81 110/204/81 109/205/81
f 109/205/82 110/204/82 106/206/82 105/207/82
f 107/208/83 111/203/83 109/205/83 105/209/83
f 112/202/84 108/210/84 106/211/84 110/204/84
o Cube.013
v -0.742912 -0.533884 -1.043485
v -0.742912 -0.123446 -1.043485
v -0.742912 -0.533884 -1.395130
v -0.742912 -0.123446 -1.395130
v -0.088685 -0.533884 -1.043485
v -0.088685 -0.123446 -1.043485
v -0.088685 -0.533884 -1.395130
v -0.088685 -0.123446 -1.395130
vt 0.375000 0.000000
vt 0.625000 0.000000
vt 0.625000 0.250000
vt 0.375000 0.250000
vt 0.625000 0.500000
vt 0.375000 0.500000
vt 0.625000 0.750000
vt 0.375000 0.750000
vt 0.625000 1.000000
vt 0.375000 1.000000
vt 0.125000 0.500000
vt 0.125000 0.750000
vt 0.875000 0.500000
vt 0.875000 0.750000
vn -1.0000 0.0000 0.0000
vn 0.0000 0.0000 -1.0000
vn 1.0000 0.0000 0.0000
vn 0.0000 0.0000 1.0000
vn 0.0000 -1.0000 0.0000
vn 0.0000 1.0000 0.0000
usemtl orange2.011
s off
f 113/212/85 114/213/85 116/214/85 115/215/85
f 115/215/86 116/214/86 120/216/86 119/217/86
f 119/217/87 120/216/87 118/218/87 117/219/87
f 117/219/88 118/218/88 114/220/88 113/221/88
f 115/222/89 119/217/89 117/219/89 113/223/89
f 120/216/90 116/224/90 114/225/90 118/218/90
o Cube.015
v -0.691350 1.200106 1.255678
v -0.691350 1.517111 1.255678
v -0.691350 1.200106 -1.255678
v -0.691350 1.517111 -1.255678
v -0.140246 1.200106 1.255678
v -0.140246 1.517111 1.255678
v -0.140246 1.200106 -1.255678
v -0.140246 1.517111 -1.255678
vt 0.375000 0.000000
vt 0.625000 0.000000
vt 0.625000 0.250000
vt 0.375000 0.250000
vt 0.625000 0.500000
vt 0.375000 0.500000
vt 0.625000 0.750000
vt 0.375000 0.750000
vt 0.625000 1.000000
vt 0.375000 1.000000
vt 0.125000 0.500000
vt 0.125000 0.750000
vt 0.875000 0.500000
vt 0.875000 0.750000
vn -1.0000 0.0000 0.0000
vn 0.0000 0.0000 -1.0000
vn 1.0000 0.0000 0.0000
vn 0.0000 0.0000 1.0000
vn 0.0000 -1.0000 0.0000
vn 0.0000 1.0000 0.0000
usemtl orange2.013
s off
f 121/226/91 122/227/91 124/228/91 123/229/91
f 123/229/92 124/228/92 128/230/92 127/231/92
f 127/231/93 128/230/93 126/232/93 125/233/93
f 125/233/94 126/232/94 122/234/94 121/235/94
f 123/236/95 127/231/95 125/233/95 121/237/95
f 128/230/96 124/238/96 122/239/96 126/232/96
o Cube.016
v -0.691350 -1.482797 1.255678
v -0.691350 -1.165792 1.255678
v -0.691350 -1.482797 -1.255678
v -0.691350 -1.165792 -1.255678
v -0.140246 -1.482797 1.255678
v -0.140246 -1.165792 1.255678
v -0.140246 -1.482797 -1.255678
v -0.140246 -1.165792 -1.255678
vt 0.375000 0.000000
vt 0.625000 0.000000
vt 0.625000 0.250000
vt 0.375000 0.250000
vt 0.625000 0.500000
vt 0.375000 0.500000
vt 0.625000 0.750000
vt 0.375000 0.750000
vt 0.625000 1.000000
vt 0.375000 1.000000
vt 0.125000 0.500000
vt 0.125000 0.750000
vt 0.875000 0.500000
vt 0.875000 0.750000
vn -1.0000 0.0000 0.0000
vn 0.0000 0.0000 -1.0000
vn 1.0000 0.0000 0.0000
vn 0.0000 0.0000 1.0000
vn 0.0000 -1.0000 0.0000
vn 0.0000 1.0000 0.0000
usemtl orange2.003
s off
f 129/240/97 130/241/97 132/242/97 131/243/97
f 131/243/98 132/242/98 136/244/98 135/245/98
f 135/245/99 136/244/99 134/246/99 133/247/99
f 133/247/100 134/246/100 130/248/100 129/249/100
f 131/250/101 135/245/101 133/247/101 129/251/101
f 136/244/102 132/252/102 130/253/102 134/246/102
o Cube.017
v -0.691350 0.199244 1.255678
v -0.691350 0.504552 1.255678
v -0.691350 0.199244 -1.255678
v -0.691350 0.504552 -1.255678
v -0.140246 0.199244 1.255678
v -0.140246 0.504552 1.255678
v -0.140246 0.199244 -1.255678
v -0.140246 0.504552 -1.255678
vt 0.375000 0.000000
vt 0.625000 0.000000
vt 0.625000 0.250000
vt 0.375000 0.250000
vt 0.625000 0.500000
vt 0.375000 0.500000
vt 0.625000 0.750000
vt 0.375000 0.750000
vt 0.625000 1.000000
vt 0.375000 1.000000
vt 0.125000 0.500000
vt 0.125000 0.750000
vt 0.875000 0.500000
vt 0.875000 0.750000
vn -1.0000 0.0000 0.0000
vn 0.0000 0.0000 -1.0000
vn 1.0000 0.0000 0.0000
vn 0.0000 0.0000 1.0000
vn 0.0000 -1.0000 0.0000
vn 0.0000 1.0000 0.0000
usemtl orange2.014
s off
f 137/254/103 138/255/103 140/256/103 139/257/103
f 139/257/104 140/256/104 144/258/104 143/259/104
f 143/259/105 144/258/105 142/260/105 141/261/105
f 141/261/106 142/260/106 138/262/106 137/263/106
f 139/264/107 143/259/107 141/261/107 137/265/107
f 144/258/108 140/266/108 138/267/108 142/260/108
o Cube.018
v -0.691350 -0.477005 1.255678
v -0.691350 -0.171697 1.255678
v -0.691350 -0.477005 -1.255678
v -0.691350 -0.171697 -1.255678
v -0.140246 -0.477005 1.255678
v -0.140246 -0.171697 1.255678
v -0.140246 -0.477005 -1.255678
v -0.140246 -0.171697 -1.255678
vt 0.375000 0.000000
vt 0.625000 0.000000
vt 0.625000 0.250000
vt 0.375000 0.250000
vt 0.625000 0.500000
vt 0.375000 0.500000
vt 0.625000 0.750000
vt 0.375000 0.750000
vt 0.625000 1.000000
vt 0.375000 1.000000
vt 0.125000 0.500000
vt 0.125000 0.750000
vt 0.875000 0.500000
vt 0.875000 0.750000
vn -1.0000 0.0000 0.0000
vn 0.0000 0.0000 -1.0000
vn 1.0000 0.0000 0.0000
vn 0.0000 0.0000 1.0000
vn 0.0000 -1.0000 0.0000
vn 0.0000 1.0000 0.0000
usemtl orange2.015
s off
f 145/268/109 146/269/109 148/270/109 147/271/109
f 147/271/110 148/270/110 152/272/110 151/273/110
f 151/273/111 152/272/111 150/274/111 149/275/111
f 149/275/112 150/274/112 146/276/112 145/277/112
f 147/278/113 151/273/113 149/275/113 145/279/113
f 152/272/114 148/280/114 146/281/114 150/274/114
o Cube.019
v -0.612435 -1.770794 -0.111256
v -0.612435 1.858296 -0.111256
v -0.612435 -1.770794 0.111256
v -0.612435 1.858296 0.111256
v -0.061332 -1.770794 -0.111256
v -0.061332 1.858296 -0.111256
v -0.061332 -1.770794 0.111256
v -0.061332 1.858296 0.111256
vt 0.375000 0.000000
vt 0.375000 0.250000
vt 0.625000 0.250000
vt 0.625000 0.000000
vt 0.375000 0.500000
vt 0.625000 0.500000
vt 0.375000 0.750000
vt 0.625000 0.750000
vt 0.375000 1.000000
vt 0.625000 1.000000
vt 0.125000 0.500000
vt 0.125000 0.750000
vt 0.875000 0.750000
vt 0.875000 0.500000
vn -1.0000 0.0000 0.0000
vn 0.0000 0.0000 1.0000
vn 1.0000 0.0000 0.0000
vn 0.0000 0.0000 -1.0000
vn 0.0000 -1.0000 0.0000
vn 0.0000 1.0000 0.0000
usemtl orange2.016
s off
f 153/282/115 155/283/115 156/284/115 154/285/115
f 155/283/116 159/286/116 160/287/116 156/284/116
f 159/286/117 157/288/117 158/289/117 160/287/117
f 157/288/118 153/290/118 154/291/118 158/289/118
f 155/292/119 153/293/119 157/288/119 159/286/119
f 160/287/120 158/289/120 154/294/120 156/295/120
o Cube.020
v -1.046873 0.284982 -0.118095
v -1.046873 0.418814 -0.118095
v -1.046873 0.284982 -0.221263
v -1.046873 0.418814 -0.221263
v -0.495769 0.284982 -0.118095
v -0.495769 0.418814 -0.118095
v -0.495769 0.284982 -0.221263
v -0.495769 0.418814 -0.221263
vt 0.375000 0.000000
vt 0.625000 0.000000
vt 0.625000 0.250000
vt 0.375000 0.250000
vt 0.625000 0.500000
vt 0.375000 0.500000
vt 0.625000 0.750000
vt 0.375000 0.750000
vt 0.625000 1.000000
vt 0.375000 1.000000
vt 0.125000 0.500000
vt 0.125000 0.750000
vt 0.875000 0.500000
vt 0.875000 0.750000
vn -1.0000 0.0000 0.0000
vn 0.0000 0.0000 -1.0000
vn 1.0000 0.0000 0.0000
vn 0.0000 0.0000 1.0000
vn 0.0000 -1.0000 0.0000
vn 0.0000 1.0000 0.0000
usemtl orange2.017
s off
f 161/296/121 162/297/121 164/298/121 163/299/121
f 163/299/122 164/298/122 168/300/122 167/301/122
f 167/301/123 168/300/123 166/302/123 165/303/123
f 165/303/124 166/302/124 162/304/124 161/305/124
f 163/306/125 167/301/125 165/303/125 161/307/125
f 168/300/126 164/308/126 162/309/126 166/302/126
o Cube.021
v -1.022623 0.133858 0.011609
v -1.022623 0.241289 0.091419
v -1.125791 0.133858 0.011609
v -1.125791 0.241289 0.091419
v -1.022623 0.462507 -0.430777
v -1.022623 0.569938 -0.350967
v -1.125791 0.462507 -0.430777
v -1.125791 0.569938 -0.350967
vt 0.375000 0.000000
vt 0.625000 0.000000
vt 0.625000 0.250000
vt 0.375000 0.250000
vt 0.625000 0.500000
vt 0.375000 0.500000
vt 0.625000 0.750000
vt 0.375000 0.750000
vt 0.625000 1.000000
vt 0.375000 1.000000
vt 0.125000 0.500000
vt 0.125000 0.750000
vt 0.875000 0.500000
vt 0.875000 0.750000
vn 0.0000 -0.5963 0.8027
vn -1.0000 -0.0000 0.0000
vn 0.0000 0.5963 -0.8027
vn 1.0000 0.0000 0.0000
vn 0.0000 -0.8027 -0.5963
vn 0.0000 0.8027 0.5963
usemtl orange2.018
s off
f 169/310/127 170/311/127 172/312/127 171/313/127
f 171/313/128 172/312/128 176/314/128 175/315/128
f 175/315/129 176/314/129 174/316/129 173/317/129
f 173/317/130 174/316/130 170/318/130 169/319/130
f 171/320/131 175/315/131 173/317/131 169/321/131
f 176/314/132 172/322/132 170/323/132 174/316/132
o Cube.022
v -0.919726 -0.257546 0.181451
v -0.919726 0.605919 0.181451
v -0.919726 -0.257546 0.285978
v -0.919726 0.605919 0.285978
v -0.368622 -0.257546 0.181451
v -0.368622 0.605919 0.181451
v -0.368622 -0.257546 0.285978
v -0.368622 0.605919 0.285978
vt 0.375000 0.000000
vt 0.375000 0.250000
vt 0.625000 0.250000
vt 0.625000 0.000000
vt 0.375000 0.500000
vt 0.625000 0.500000
vt 0.375000 0.750000
vt 0.625000 0.750000
vt 0.375000 1.000000
vt 0.625000 1.000000
vt 0.125000 0.500000
vt 0.125000 0.750000
vt 0.875000 0.750000
vt 0.875000 0.500000
vn -1.0000 0.0000 0.0000
vn 0.0000 0.0000 1.0000
vn 1.0000 0.0000 0.0000
vn 0.0000 0.0000 -1.0000
vn 0.0000 -1.0000 0.0000
vn 0.0000 1.0000 0.0000
usemtl orange2.019
s off
f 177/324/133 179/325/133 180/326/133 178/327/133
f 179/325/134 183/328/134 184/329/134 180/326/134
f 183/328/135 181/330/135 182/331/135 184/329/135
f 181/330/136 177/332/136 178/333/136 182/331/136
f 179/334/137 177/335/137 181/330/137 183/328/137
f 184/329/138 182/331/138 178/336/138 180/337/138
