# Blender v2.80 (sub 75) OBJ File: 'portrait.blend'
# www.blender.org
mtllib easterEgg.mtl
o Cube
v -0.190732 0.295677 -0.899719
v -0.190732 0.037212 -0.899719
v -0.190732 0.295677 0.899719
v -0.190732 0.037212 0.899719
v 0.190732 0.295677 -0.899719
v 0.190732 0.037212 -0.899719
v 0.190732 0.295677 0.899719
v 0.190732 0.037212 0.899719
vt 0.375000 0.000000
vt 0.375000 0.250000
vt 0.625000 0.250000
vt 0.625000 0.000000
vt 0.375000 0.250000
vt 0.375000 0.500000
vt 0.625000 0.500000
vt 0.625000 0.250000
vt 0.375000 0.750000
vt 0.625000 0.750000
vt 0.375000 1.000000
vt 0.625000 1.000000
vt 0.625000 0.750000
vt 0.125000 0.500000
vt 0.125000 0.750000
vt 0.375000 0.750000
vt 0.375000 0.500000
vt 0.625000 0.500000
vt 0.875000 0.750000
vt 0.875000 0.500000
vn 0.0000 1.0000 0.0000
vn 0.0000 0.0000 1.0000
vn 1.0000 0.0000 0.0000
vn 0.0000 -1.0000 0.0000
vn -1.0000 0.0000 0.0000
vn 0.0000 0.0000 -1.0000
usemtl Cadre
s off
f 1/1/1 3/2/1 7/3/1 5/4/1
f 4/5/2 8/6/2 7/7/2 3/8/2
f 8/6/3 6/9/3 5/10/3 7/7/3
f 6/9/4 8/11/4 4/12/4 2/13/4
f 2/14/5 4/15/5 3/16/5 1/17/5
f 6/18/6 2/13/6 1/19/6 5/20/6
o Plane
v -0.000000 0.241038 0.693200
v 0.000000 0.241038 -0.693200
v -0.000000 1.627437 0.693200
v 0.000000 1.627437 -0.693200
vt 0.000000 0.000000
vt 1.000000 0.000000
vt 1.000000 1.000000
vt 0.000000 1.000000
vn 1.0000 -0.0000 0.0000
usemtl Material.002
s off
f 9/21/7 10/22/7 12/23/7 11/24/7
o Cube.001_Cube.002
v -0.102541 1.568849 0.881095
v -0.102541 1.568849 0.622630
v -0.102541 0.244531 0.881095
v -0.102541 0.244531 0.622630
v 0.102541 1.568849 0.881095
v 0.102541 1.568849 0.622630
v 0.102541 0.244531 0.881095
v 0.102541 0.244531 0.622630
vt 0.375000 0.000000
vt 0.375000 0.250000
vt 0.625000 0.250000
vt 0.625000 0.000000
vt 0.375000 0.250000
vt 0.375000 0.500000
vt 0.625000 0.500000
vt 0.625000 0.250000
vt 0.375000 0.750000
vt 0.625000 0.750000
vt 0.375000 1.000000
vt 0.625000 1.000000
vt 0.625000 0.750000
vt 0.125000 0.500000
vt 0.125000 0.750000
vt 0.375000 0.750000
vt 0.375000 0.500000
vt 0.625000 0.500000
vt 0.875000 0.750000
vt 0.875000 0.500000
vn 0.0000 -0.0000 1.0000
vn 0.0000 -1.0000 0.0000
vn 1.0000 0.0000 0.0000
vn 0.0000 0.0000 -1.0000
vn -1.0000 0.0000 0.0000
vn 0.0000 1.0000 0.0000
usemtl Cadre
s off
f 13/25/8 15/26/8 19/27/8 17/28/8
f 16/29/9 20/30/9 19/31/9 15/32/9
f 20/30/10 18/33/10 17/34/10 19/31/10
f 18/33/11 20/35/11 16/36/11 14/37/11
f 14/38/12 16/39/12 15/40/12 13/41/12
f 18/42/13 14/37/13 13/43/13 17/44/13
o Cube.002_Cube.003
v -0.102541 1.568849 -0.614130
v -0.102541 1.568849 -0.872596
v -0.102541 0.244531 -0.614131
v -0.102541 0.244531 -0.872596
v 0.102541 1.568849 -0.614130
v 0.102541 1.568849 -0.872596
v 0.102541 0.244531 -0.614131
v 0.102541 0.244531 -0.872596
vt 0.375000 0.000000
vt 0.375000 0.250000
vt 0.625000 0.250000
vt 0.625000 0.000000
vt 0.375000 0.250000
vt 0.375000 0.500000
vt 0.625000 0.500000
vt 0.625000 0.250000
vt 0.375000 0.750000
vt 0.625000 0.750000
vt 0.375000 1.000000
vt 0.625000 1.000000
vt 0.625000 0.750000
vt 0.125000 0.500000
vt 0.125000 0.750000
vt 0.375000 0.750000
vt 0.375000 0.500000
vt 0.625000 0.500000
vt 0.875000 0.750000
vt 0.875000 0.500000
vn 0.0000 -0.0000 1.0000
vn 0.0000 -1.0000 0.0000
vn 1.0000 0.0000 0.0000
vn 0.0000 0.0000 -1.0000
vn -1.0000 0.0000 0.0000
vn 0.0000 1.0000 0.0000
usemtl Cadre
s off
f 21/45/14 23/46/14 27/47/14 25/48/14
f 24/49/15 28/50/15 27/51/15 23/52/15
f 28/50/16 26/53/16 25/54/16 27/51/16
f 26/53/17 28/55/17 24/56/17 22/57/17
f 22/58/18 24/59/18 23/60/18 21/61/18
f 26/62/19 22/57/19 21/63/19 25/64/19
o Cube.003_Cube.004
v -0.190732 1.787856 -0.899719
v -0.190732 1.529390 -0.899719
v -0.190732 1.787856 0.899719
v -0.190732 1.529390 0.899719
v 0.190732 1.787856 -0.899719
v 0.190732 1.529390 -0.899719
v 0.190732 1.787856 0.899719
v 0.190732 1.529390 0.899719
vt 0.375000 0.000000
vt 0.375000 0.250000
vt 0.625000 0.250000
vt 0.625000 0.000000
vt 0.375000 0.250000
vt 0.375000 0.500000
vt 0.625000 0.500000
vt 0.625000 0.250000
vt 0.375000 0.750000
vt 0.625000 0.750000
vt 0.375000 1.000000
vt 0.625000 1.000000
vt 0.625000 0.750000
vt 0.125000 0.500000
vt 0.125000 0.750000
vt 0.375000 0.750000
vt 0.375000 0.500000
vt 0.625000 0.500000
vt 0.875000 0.750000
vt 0.875000 0.500000
vn 0.0000 1.0000 0.0000
vn 0.0000 0.0000 1.0000
vn 1.0000 0.0000 0.0000
vn 0.0000 -1.0000 0.0000
vn -1.0000 0.0000 0.0000
vn 0.0000 0.0000 -1.0000
usemtl Cadre
s off
f 29/65/20 31/66/20 35/67/20 33/68/20
f 32/69/21 36/70/21 35/71/21 31/72/21
f 36/70/22 34/73/22 33/74/22 35/71/22
f 34/73/23 36/75/23 32/76/23 30/77/23
f 30/78/24 32/79/24 31/80/24 29/81/24
f 34/82/25 30/77/25 29/83/25 33/84/25
o Cube.004_Cube.005
v -0.067147 1.721705 0.295776
v -0.067147 1.745741 0.319813
v -0.067147 2.066222 -0.048742
v -0.067147 2.090259 -0.024705
v -0.117317 1.721705 0.295776
v -0.117317 1.745741 0.319813
v -0.117317 2.066222 -0.048742
v -0.117317 2.090259 -0.024705
vt 0.375000 0.000000
vt 0.625000 0.000000
vt 0.625000 0.250000
vt 0.375000 0.250000
vt 0.375000 0.250000
vt 0.625000 0.250000
vt 0.625000 0.500000
vt 0.375000 0.500000
vt 0.625000 0.750000
vt 0.375000 0.750000
vt 0.625000 0.750000
vt 0.625000 1.000000
vt 0.375000 1.000000
vt 0.125000 0.500000
vt 0.375000 0.500000
vt 0.375000 0.750000
vt 0.125000 0.750000
vt 0.625000 0.500000
vt 0.875000 0.500000
vt 0.875000 0.750000
vn 0.0000 -0.7071 -0.7071
vn 0.0000 0.7071 -0.7071
vn -1.0000 -0.0000 0.0000
vn 0.0000 0.7071 0.7071
vn 1.0000 0.0000 0.0000
vn 0.0000 -0.7071 0.7071
usemtl Material.006
s off
f 37/85/26 41/86/26 43/87/26 39/88/26
f 40/89/27 39/90/27 43/91/27 44/92/27
f 44/92/28 43/91/28 41/93/28 42/94/28
f 42/94/29 38/95/29 40/96/29 44/97/29
f 38/98/30 37/99/30 39/100/30 40/101/30
f 42/102/31 41/103/31 37/104/31 38/95/31
o Cube.005_Cube.006
v -0.067147 1.745741 -0.374990
v -0.067147 1.721705 -0.350953
v -0.067147 2.090259 -0.030472
v -0.067147 2.066222 -0.006435
v -0.117317 1.745741 -0.374990
v -0.117317 1.721705 -0.350953
v -0.117317 2.090259 -0.030472
v -0.117317 2.066222 -0.006435
vt 0.375000 0.000000
vt 0.625000 0.000000
vt 0.625000 0.250000
vt 0.375000 0.250000
vt 0.375000 0.250000
vt 0.625000 0.250000
vt 0.625000 0.500000
vt 0.375000 0.500000
vt 0.625000 0.750000
vt 0.375000 0.750000
vt 0.625000 0.750000
vt 0.625000 1.000000
vt 0.375000 1.000000
vt 0.125000 0.500000
vt 0.375000 0.500000
vt 0.375000 0.750000
vt 0.125000 0.750000
vt 0.625000 0.500000
vt 0.875000 0.500000
vt 0.875000 0.750000
vn 0.0000 0.7071 -0.7071
vn 0.0000 0.7071 0.7071
vn -1.0000 -0.0000 0.0000
vn 0.0000 -0.7071 0.7071
vn 1.0000 0.0000 0.0000
vn 0.0000 -0.7071 -0.7071
usemtl Material.007
s off
f 45/105/32 49/106/32 51/107/32 47/108/32
f 48/109/33 47/110/33 51/111/33 52/112/33
f 52/112/34 51/111/34 49/113/34 50/114/34
f 50/114/35 46/115/35 48/116/35 52/117/35
f 46/118/36 45/119/36 47/120/36 48/121/36
f 50/122/37 49/123/37 45/124/37 46/115/37
o Cylinder
v -0.384919 2.030523 -0.096486
v -0.034123 2.030523 -0.096486
v -0.384919 1.992382 -0.082603
v -0.034123 1.992382 -0.082603
v -0.384919 1.972087 -0.047452
v -0.034123 1.972087 -0.047452
v -0.384919 1.979135 -0.007479
v -0.034123 1.979135 -0.007479
v -0.384919 2.010228 0.018611
v -0.034123 2.010228 0.018611
v -0.384919 2.050818 0.018611
v -0.034123 2.050818 0.018611
v -0.384919 2.081911 -0.007479
v -0.034123 2.081911 -0.007479
v -0.384919 2.088959 -0.047452
v -0.034123 2.088959 -0.047452
v -0.384919 2.068665 -0.082603
v -0.034123 2.068665 -0.082603
vt 1.000000 0.500000
vt 1.000000 1.000000
vt 0.888889 1.000000
vt 0.888889 0.500000
vt 0.777778 1.000000
vt 0.777778 0.500000
vt 0.666667 1.000000
vt 0.666667 0.500000
vt 0.555556 1.000000
vt 0.555556 0.500000
vt 0.444444 1.000000
vt 0.444444 0.500000
vt 0.333333 1.000000
vt 0.333333 0.500000
vt 0.222222 1.000000
vt 0.222222 0.500000
vt 0.404269 0.433851
vt 0.250000 0.490000
vt 0.095731 0.433851
vt 0.013646 0.291676
vt 0.042154 0.130000
vt 0.167915 0.024474
vt 0.332085 0.024474
vt 0.457846 0.130000
vt 0.486354 0.291676
vt 0.111111 1.000000
vt 0.111111 0.500000
vt 0.000000 1.000000
vt 0.000000 0.500000
vt 0.750000 0.490000
vt 0.904269 0.433851
vt 0.986354 0.291676
vt 0.957846 0.130000
vt 0.832085 0.024474
vt 0.667915 0.024474
vt 0.542154 0.130000
vt 0.513646 0.291676
vt 0.595731 0.433851
vn 0.0000 -0.3420 -0.9397
vn 0.0000 -0.8660 -0.5000
vn 0.0000 -0.9848 0.1736
vn 0.0000 -0.6428 0.7660
vn 0.0000 0.0000 1.0000
vn 0.0000 0.6428 0.7660
vn -0.0000 0.9848 0.1737
vn 1.0000 -0.0000 0.0000
vn -0.0000 0.8660 -0.5000
vn 0.0000 0.3420 -0.9397
vn -1.0000 -0.0000 0.0000
usemtl Clou
s off
f 53/125/38 54/126/38 56/127/38 55/128/38
f 55/128/39 56/127/39 58/129/39 57/130/39
f 57/130/40 58/129/40 60/131/40 59/132/40
f 59/132/41 60/131/41 62/133/41 61/134/41
f 61/134/42 62/133/42 64/135/42 63/136/42
f 63/136/43 64/135/43 66/137/43 65/138/43
f 65/138/44 66/137/44 68/139/44 67/140/44
f 56/141/45 54/142/45 70/143/45 68/144/45 66/145/45 64/146/45 62/147/45 60/148/45 58/149/45
f 67/140/46 68/139/46 70/150/46 69/151/46
f 69/151/47 70/150/47 54/152/47 53/153/47
f 53/154/48 55/155/48 57/156/48 59/157/48 61/158/48 63/159/48 65/160/48 67/161/48 69/162/48
o Cube.006_Cube.007
v -0.071317 1.694897 -0.671076
v -0.071317 0.248149 -0.671076
v -0.071317 1.694897 0.671076
v -0.071317 0.248149 0.671076
v -0.037850 1.694897 -0.671076
v -0.037850 0.248149 -0.671076
v -0.037850 1.694897 0.671076
v -0.037850 0.248149 0.671076
vt 0.375000 0.000000
vt 0.375000 0.250000
vt 0.625000 0.250000
vt 0.625000 0.000000
vt 0.375000 0.250000
vt 0.375000 0.500000
vt 0.625000 0.500000
vt 0.625000 0.250000
vt 0.375000 0.750000
vt 0.625000 0.750000
vt 0.375000 1.000000
vt 0.625000 1.000000
vt 0.625000 0.750000
vt 0.125000 0.500000
vt 0.125000 0.750000
vt 0.375000 0.750000
vt 0.375000 0.500000
vt 0.625000 0.500000
vt 0.875000 0.750000
vt 0.875000 0.500000
vn 0.0000 1.0000 0.0000
vn 0.0000 0.0000 1.0000
vn 1.0000 0.0000 0.0000
vn 0.0000 -1.0000 0.0000
vn -1.0000 0.0000 0.0000
vn 0.0000 0.0000 -1.0000
usemtl Cadre
s off
f 71/163/49 73/164/49 77/165/49 75/166/49
f 74/167/50 78/168/50 77/169/50 73/170/50
f 78/168/51 76/171/51 75/172/51 77/169/51
f 76/171/52 78/173/52 74/174/52 72/175/52
f 72/176/53 74/177/53 73/178/53 71/179/53
f 76/180/54 72/175/54 71/181/54 75/182/54
