# Blender v2.80 (sub 75) OBJ File: 'key.blend'
# www.blender.org
mtllib key.mtl
o Cube
v 1.000000 3.138623 -1.000000
v 1.000000 -2.496695 -1.000000
v 1.000000 3.138623 1.000000
v 1.000000 -2.496695 1.000000
v -1.000000 3.138623 -1.000000
v -1.000000 -2.496695 -1.000000
v -1.000000 3.138623 1.000000
v -1.000000 -2.496695 1.000000
vt 0.375000 0.000000
vt 0.625000 0.000000
vt 0.625000 0.250000
vt 0.375000 0.250000
vt 0.375000 0.250000
vt 0.625000 0.250000
vt 0.625000 0.500000
vt 0.375000 0.500000
vt 0.625000 0.750000
vt 0.375000 0.750000
vt 0.625000 0.750000
vt 0.625000 1.000000
vt 0.375000 1.000000
vt 0.125000 0.500000
vt 0.375000 0.500000
vt 0.375000 0.750000
vt 0.125000 0.750000
vt 0.625000 0.500000
vt 0.875000 0.500000
vt 0.875000 0.750000
vn 0.0000 1.0000 0.0000
vn 0.0000 0.0000 1.0000
vn -1.0000 0.0000 0.0000
vn 0.0000 -1.0000 0.0000
vn 1.0000 0.0000 0.0000
vn 0.0000 0.0000 -1.0000
usemtl Gold
s off
f 1/1/1 5/2/1 7/3/1 3/4/1
f 4/5/2 3/6/2 7/7/2 8/8/2
f 8/8/3 7/7/3 5/9/3 6/10/3
f 6/10/4 2/11/4 4/12/4 8/13/4
f 2/14/5 1/15/5 3/16/5 4/17/5
f 6/18/6 5/19/6 1/20/6 2/11/6
o Cube.001
v -0.680523 -2.308292 0.416672
v -0.680523 -0.947247 0.416672
v -0.680523 -2.308292 -2.971484
v -0.680523 -0.947247 -2.971484
v 0.680523 -2.308292 0.416672
v 0.680523 -0.947247 0.416672
v 0.680523 -2.308292 -2.971484
v 0.680523 -0.947247 -2.971484
vt 0.375000 0.000000
vt 0.625000 0.000000
vt 0.625000 0.250000
vt 0.375000 0.250000
vt 0.625000 0.500000
vt 0.375000 0.500000
vt 0.625000 0.750000
vt 0.375000 0.750000
vt 0.625000 1.000000
vt 0.375000 1.000000
vt 0.125000 0.500000
vt 0.125000 0.750000
vt 0.875000 0.500000
vt 0.875000 0.750000
vn -1.0000 0.0000 0.0000
vn 0.0000 0.0000 -1.0000
vn 1.0000 0.0000 0.0000
vn 0.0000 0.0000 1.0000
vn 0.0000 -1.0000 0.0000
vn 0.0000 1.0000 0.0000
usemtl Gold
s off
f 9/21/7 10/22/7 12/23/7 11/24/7
f 11/24/8 12/23/8 16/25/8 15/26/8
f 15/26/9 16/25/9 14/27/9 13/28/9
f 13/28/10 14/27/10 10/29/10 9/30/10
f 11/31/11 15/26/11 13/28/11 9/32/11
f 16/25/12 12/33/12 10/34/12 14/27/12
o Cube.002
v -0.680523 -0.135355 0.866254
v -0.680523 1.225690 0.866254
v -0.680523 -0.135355 -2.521902
v -0.680523 1.225690 -2.521902
v 0.680523 -0.135355 0.866254
v 0.680523 1.225690 0.866254
v 0.680523 -0.135355 -2.521902
v 0.680523 1.225690 -2.521902
vt 0.375000 0.000000
vt 0.625000 0.000000
vt 0.625000 0.250000
vt 0.375000 0.250000
vt 0.625000 0.500000
vt 0.375000 0.500000
vt 0.625000 0.750000
vt 0.375000 0.750000
vt 0.625000 1.000000
vt 0.375000 1.000000
vt 0.125000 0.500000
vt 0.125000 0.750000
vt 0.875000 0.500000
vt 0.875000 0.750000
vn -1.0000 0.0000 0.0000
vn 0.0000 0.0000 -1.0000
vn 1.0000 0.0000 0.0000
vn 0.0000 0.0000 1.0000
vn 0.0000 -1.0000 0.0000
vn 0.0000 1.0000 0.0000
usemtl Gold
s off
f 17/35/13 18/36/13 20/37/13 19/38/13
f 19/38/14 20/37/14 24/39/14 23/40/14
f 23/40/15 24/39/15 22/41/15 21/42/15
f 21/42/16 22/41/16 18/43/16 17/44/16
f 19/45/17 23/40/17 21/42/17 17/46/17
f 24/39/18 20/47/18 18/48/18 22/41/18
o Cylinder
v 0.000000 -1.000000 -1.000000
v 0.000000 1.000000 -1.000000
v 0.195090 -1.000000 -0.980785
v 0.195090 1.000000 -0.980785
v 0.382683 -1.000000 -0.923880
v 0.382683 1.000000 -0.923880
v 0.555570 -1.000000 -0.831470
v 0.555570 1.000000 -0.831470
v 0.707107 -1.000000 -0.707107
v 0.707107 1.000000 -0.707107
v 0.831470 -1.000000 -0.555570
v 0.831470 1.000000 -0.555570
v 0.923880 -1.000000 -0.382683
v 0.923880 1.000000 -0.382683
v 0.980785 -1.000000 -0.195090
v 0.980785 1.000000 -0.195090
v 1.000000 -1.000000 -0.000000
v 1.000000 1.000000 -0.000000
v 0.980785 -1.000000 0.195090
v 0.980785 1.000000 0.195090
v 0.923880 -1.000000 0.382683
v 0.923880 1.000000 0.382683
v 0.831470 -1.000000 0.555570
v 0.831470 1.000000 0.555570
v 0.707107 -1.000000 0.707107
v 0.707107 1.000000 0.707107
v 0.555570 -1.000000 0.831470
v 0.555570 1.000000 0.831470
v 0.382683 -1.000000 0.923880
v 0.382683 1.000000 0.923880
v 0.195090 -1.000000 0.980785
v 0.195090 1.000000 0.980785
v -0.000000 -1.000000 1.000000
v -0.000000 1.000000 1.000000
v -0.195091 -1.000000 0.980785
v -0.195091 1.000000 0.980785
v -0.382684 -1.000000 0.923879
v -0.382684 1.000000 0.923879
v -0.555571 -1.000000 0.831469
v -0.555571 1.000000 0.831469
v -0.707107 -1.000000 0.707106
v -0.707107 1.000000 0.707106
v -0.831470 -1.000000 0.555570
v -0.831470 1.000000 0.555570
v -0.923880 -1.000000 0.382683
v -0.923880 1.000000 0.382683
v -0.980785 -1.000000 0.195089
v -0.980785 1.000000 0.195089
v -1.000000 -1.000000 -0.000001
v -1.000000 1.000000 -0.000001
v -0.980785 -1.000000 -0.195091
v -0.980785 1.000000 -0.195091
v -0.923879 -1.000000 -0.382684
v -0.923879 1.000000 -0.382684
v -0.831469 -1.000000 -0.555571
v -0.831469 1.000000 -0.555571
v -0.707106 -1.000000 -0.707108
v -0.707106 1.000000 -0.707108
v -0.555569 -1.000000 -0.831470
v -0.555569 1.000000 -0.831470
v -0.382682 -1.000000 -0.923880
v -0.382682 1.000000 -0.923880
v -0.195089 -1.000000 -0.980786
v -0.195089 1.000000 -0.980786
vt 1.000000 0.500000
vt 1.000000 1.000000
vt 0.968750 1.000000
vt 0.968750 0.500000
vt 0.937500 1.000000
vt 0.937500 0.500000
vt 0.906250 1.000000
vt 0.906250 0.500000
vt 0.875000 1.000000
vt 0.875000 0.500000
vt 0.843750 1.000000
vt 0.843750 0.500000
vt 0.812500 1.000000
vt 0.812500 0.500000
vt 0.781250 1.000000
vt 0.781250 0.500000
vt 0.750000 1.000000
vt 0.750000 0.500000
vt 0.718750 1.000000
vt 0.718750 0.500000
vt 0.687500 1.000000
vt 0.687500 0.500000
vt 0.656250 1.000000
vt 0.656250 0.500000
vt 0.625000 1.000000
vt 0.625000 0.500000
vt 0.593750 1.000000
vt 0.593750 0.500000
vt 0.562500 1.000000
vt 0.562500 0.500000
vt 0.531250 1.000000
vt 0.531250 0.500000
vt 0.500000 1.000000
vt 0.500000 0.500000
vt 0.468750 1.000000
vt 0.468750 0.500000
vt 0.437500 1.000000
vt 0.437500 0.500000
vt 0.406250 1.000000
vt 0.406250 0.500000
vt 0.375000 1.000000
vt 0.375000 0.500000
vt 0.343750 1.000000
vt 0.343750 0.500000
vt 0.312500 1.000000
vt 0.312500 0.500000
vt 0.281250 1.000000
vt 0.281250 0.500000
vt 0.250000 1.000000
vt 0.250000 0.500000
vt 0.218750 1.000000
vt 0.218750 0.500000
vt 0.187500 1.000000
vt 0.187500 0.500000
vt 0.156250 1.000000
vt 0.156250 0.500000
vt 0.125000 1.000000
vt 0.125000 0.500000
vt 0.093750 1.000000
vt 0.093750 0.500000
vt 0.062500 1.000000
vt 0.062500 0.500000
vt 0.296822 0.485388
vt 0.250000 0.490000
vt 0.203179 0.485389
vt 0.158156 0.471731
vt 0.116663 0.449553
vt 0.080295 0.419706
vt 0.050447 0.383337
vt 0.028269 0.341844
vt 0.014612 0.296822
vt 0.010000 0.250000
vt 0.014611 0.203179
vt 0.028269 0.158156
vt 0.050447 0.116663
vt 0.080294 0.080294
vt 0.116663 0.050447
vt 0.158156 0.028269
vt 0.203178 0.014612
vt 0.250000 0.010000
vt 0.296822 0.014612
vt 0.341844 0.028269
vt 0.383337 0.050447
vt 0.419706 0.080294
vt 0.449553 0.116663
vt 0.471731 0.158156
vt 0.485388 0.203178
vt 0.490000 0.250000
vt 0.485388 0.296822
vt 0.471731 0.341844
vt 0.449553 0.383337
vt 0.419706 0.419706
vt 0.383337 0.449553
vt 0.341844 0.471731
vt 0.031250 1.000000
vt 0.031250 0.500000
vt 0.000000 1.000000
vt 0.000000 0.500000
vt 0.750000 0.490000
vt 0.796822 0.485388
vt 0.841844 0.471731
vt 0.883337 0.449553
vt 0.919706 0.419706
vt 0.949553 0.383337
vt 0.971731 0.341844
vt 0.985388 0.296822
vt 0.990000 0.250000
vt 0.985388 0.203178
vt 0.971731 0.158156
vt 0.949553 0.116663
vt 0.919706 0.080294
vt 0.883337 0.050447
vt 0.841844 0.028269
vt 0.796822 0.014612
vt 0.750000 0.010000
vt 0.703178 0.014612
vt 0.658156 0.028269
vt 0.616663 0.050447
vt 0.580294 0.080294
vt 0.550447 0.116663
vt 0.528269 0.158156
vt 0.514611 0.203179
vt 0.510000 0.250000
vt 0.514612 0.296822
vt 0.528269 0.341844
vt 0.550447 0.383337
vt 0.580295 0.419706
vt 0.616663 0.449553
vt 0.658156 0.471731
vt 0.703179 0.485389
vn 0.0980 0.0000 -0.9952
vn 0.2903 0.0000 -0.9569
vn 0.4714 0.0000 -0.8819
vn 0.6344 0.0000 -0.7730
vn 0.7730 0.0000 -0.6344
vn 0.8819 0.0000 -0.4714
vn 0.9569 0.0000 -0.2903
vn 0.9952 0.0000 -0.0980
vn 0.9952 0.0000 0.0980
vn 0.9569 0.0000 0.2903
vn 0.8819 0.0000 0.4714
vn 0.7730 0.0000 0.6344
vn 0.6344 0.0000 0.7730
vn 0.4714 0.0000 0.8819
vn 0.2903 0.0000 0.9569
vn 0.0980 0.0000 0.9952
vn -0.0980 0.0000 0.9952
vn -0.2903 0.0000 0.9569
vn -0.4714 0.0000 0.8819
vn -0.6344 0.0000 0.7730
vn -0.7730 0.0000 0.6344
vn -0.8819 0.0000 0.4714
vn -0.9569 0.0000 0.2903
vn -0.9952 0.0000 0.0980
vn -0.9952 0.0000 -0.0980
vn -0.9569 0.0000 -0.2903
vn -0.8819 0.0000 -0.4714
vn -0.7730 0.0000 -0.6344
vn -0.6344 0.0000 -0.7730
vn -0.4714 0.0000 -0.8819
vn 0.0000 1.0000 0.0000
vn -0.2903 0.0000 -0.9569
vn -0.0980 0.0000 -0.9952
vn 0.0000 -1.0000 -0.0000
usemtl None
s off
f 25/49/19 26/50/19 28/51/19 27/52/19
f 27/52/20 28/51/20 30/53/20 29/54/20
f 29/54/21 30/53/21 32/55/21 31/56/21
f 31/56/22 32/55/22 34/57/22 33/58/22
f 33/58/23 34/57/23 36/59/23 35/60/23
f 35/60/24 36/59/24 38/61/24 37/62/24
f 37/62/25 38/61/25 40/63/25 39/64/25
f 39/64/26 40/63/26 42/65/26 41/66/26
f 41/66/27 42/65/27 44/67/27 43/68/27
f 43/68/28 44/67/28 46/69/28 45/70/28
f 45/70/29 46/69/29 48/71/29 47/72/29
f 47/72/30 48/71/30 50/73/30 49/74/30
f 49/74/31 50/73/31 52/75/31 51/76/31
f 51/76/32 52/75/32 54/77/32 53/78/32
f 53/78/33 54/77/33 56/79/33 55/80/33
f 55/80/34 56/79/34 58/81/34 57/82/34
f 57/82/35 58/81/35 60/83/35 59/84/35
f 59/84/36 60/83/36 62/85/36 61/86/36
f 61/86/37 62/85/37 64/87/37 63/88/37
f 63/88/38 64/87/38 66/89/38 65/90/38
f 65/90/39 66/89/39 68/91/39 67/92/39
f 67/92/40 68/91/40 70/93/40 69/94/40
f 69/94/41 70/93/41 72/95/41 71/96/41
f 71/96/42 72/95/42 74/97/42 73/98/42
f 73/98/43 74/97/43 76/99/43 75/100/43
f 75/100/44 76/99/44 78/101/44 77/102/44
f 77/102/45 78/101/45 80/103/45 79/104/45
f 79/104/46 80/103/46 82/105/46 81/106/46
f 81/106/47 82/105/47 84/107/47 83/108/47
f 83/108/48 84/107/48 86/109/48 85/110/48
f 28/111/49 26/112/49 88/113/49 86/114/49 84/115/49 82/116/49 80/117/49 78/118/49 76/119/49 74/120/49 72/121/49 70/122/49 68/123/49 66/124/49 64/125/49 62/126/49 60/127/49 58/128/49 56/129/49 54/130/49 52/131/49 50/132/49 48/133/49 46/134/49 44/135/49 42/136/49 40/137/49 38/138/49 36/139/49 34/140/49 32/141/49 30/142/49
f 85/110/50 86/109/50 88/143/50 87/144/50
f 87/144/51 88/143/51 26/145/51 25/146/51
f 25/147/52 27/148/52 29/149/52 31/150/52 33/151/52 35/152/52 37/153/52 39/154/52 41/155/52 43/156/52 45/157/52 47/158/52 49/159/52 51/160/52 53/161/52 55/162/52 57/163/52 59/164/52 61/165/52 63/166/52 65/167/52 67/168/52 69/169/52 71/170/52 73/171/52 75/172/52 77/173/52 79/174/52 81/175/52 83/176/52 85/177/52 87/178/52
o Cylinder.001
v -1.487100 5.185060 -3.343771
v 1.263123 5.185289 -3.434657
v -1.469591 3.801045 -2.817467
v 1.280632 3.801275 -2.908353
v -1.426767 2.834542 -1.524049
v 1.323456 2.834772 -1.614936
v -1.370102 2.544523 0.189913
v 1.380121 2.544753 0.099027
v -1.314779 3.008699 1.865164
v 1.435444 3.008929 1.774278
v -1.275622 4.102695 3.052823
v 1.474601 4.102924 2.961936
v -1.263123 5.533373 3.434657
v 1.487100 5.533603 3.343771
v -1.280632 6.917387 2.908354
v 1.469591 6.917617 2.817468
v -1.323456 7.883891 1.614937
v 1.426767 7.884120 1.524050
v -1.380121 8.173910 -0.099025
v 1.370102 8.174140 -0.189911
v -1.435444 7.709735 -1.774276
v 1.314779 7.709965 -1.865162
v -1.474601 6.615741 -2.961936
v 1.275622 6.615971 -3.052822
v -1.438945 5.259947 -1.886409
v 1.311278 5.260177 -1.977295
v -1.428965 4.471041 -1.586417
v 1.321258 4.471270 -1.677303
v -1.404556 3.920149 -0.849190
v 1.345667 3.920379 -0.940076
v -1.372256 3.754841 0.127791
v 1.377967 3.755071 0.036905
v -1.340721 4.019421 1.082707
v 1.409502 4.019650 0.991821
v -1.318403 4.642981 1.759653
v 1.431821 4.643210 1.668767
v -1.311278 5.458486 1.977295
v 1.438945 5.458715 1.886409
v -1.321258 6.247392 1.677304
v 1.428965 6.247622 1.586418
v -1.345667 6.798284 0.940077
v 1.404556 6.798514 0.849191
v -1.377967 6.963629 -0.036905
v 1.372256 6.963859 -0.127791
v -1.409502 6.699014 -0.991819
v 1.340721 6.699244 -1.082705
v -1.431821 6.075455 -1.668766
v 1.318403 6.075685 -1.759652
vt 1.000000 0.500000
vt 1.000000 1.000000
vt 0.916667 1.000000
vt 0.916667 0.500000
vt 0.833333 1.000000
vt 0.833333 0.500000
vt 0.750000 1.000000
vt 0.750000 0.500000
vt 0.666667 1.000000
vt 0.666667 0.500000
vt 0.583333 1.000000
vt 0.583333 0.500000
vt 0.500000 1.000000
vt 0.500000 0.500000
vt 0.416667 1.000000
vt 0.416667 0.500000
vt 0.333333 1.000000
vt 0.333333 0.500000
vt 0.250000 1.000000
vt 0.250000 0.500000
vt 0.166667 1.000000
vt 0.166667 0.500000
vt 0.083333 1.000000
vt 0.083333 0.500000
vt 0.000000 1.000000
vt 0.000000 0.500000
vt 1.000000 0.500000
vt 0.916667 0.500000
vt 0.916667 1.000000
vt 1.000000 1.000000
vt 0.833333 0.500000
vt 0.833333 1.000000
vt 0.750000 0.500000
vt 0.750000 1.000000
vt 0.666667 0.500000
vt 0.666667 1.000000
vt 0.583333 0.500000
vt 0.583333 1.000000
vt 0.500000 0.500000
vt 0.500000 1.000000
vt 0.416667 0.500000
vt 0.416667 1.000000
vt 0.333333 0.500000
vt 0.333333 1.000000
vt 0.250000 0.500000
vt 0.250000 1.000000
vt 0.166667 0.500000
vt 0.166667 1.000000
vt 0.083333 0.500000
vt 0.083333 1.000000
vt 0.000000 0.500000
vt 0.000000 1.000000
vn -0.0308 -0.3556 -0.9341
vn -0.0197 -0.8012 -0.5981
vn -0.0054 -0.9860 -0.1667
vn 0.0089 -0.9637 0.2667
vn 0.0224 -0.7357 0.6769
vn 0.0319 -0.2580 0.9656
vn 0.0308 0.3556 0.9341
vn 0.0197 0.8012 0.5981
vn 0.0054 0.9860 0.1667
vn -0.0089 0.9637 -0.2667
vn -0.0224 0.7357 -0.6769
vn -0.0319 0.2580 -0.9656
vn 0.0089 -0.9637 0.2668
vn -0.9995 -0.0001 0.0330
vn 0.9995 0.0001 -0.0330
usemtl Gold
s off
f 89/179/53 90/180/53 92/181/53 91/182/53
f 91/182/54 92/181/54 94/183/54 93/184/54
f 93/184/55 94/183/55 96/185/55 95/186/55
f 95/186/56 96/185/56 98/187/56 97/188/56
f 97/188/57 98/187/57 100/189/57 99/190/57
f 99/190/58 100/189/58 102/191/58 101/192/58
f 101/192/59 102/191/59 104/193/59 103/194/59
f 103/194/60 104/193/60 106/195/60 105/196/60
f 105/196/61 106/195/61 108/197/61 107/198/61
f 107/198/62 108/197/62 110/199/62 109/200/62
f 109/200/63 110/199/63 112/201/63 111/202/63
f 111/202/64 112/201/64 90/203/64 89/204/64
f 113/205/59 115/206/59 116/207/59 114/208/59
f 115/206/60 117/209/60 118/210/60 116/207/60
f 117/209/61 119/211/61 120/212/61 118/210/61
f 119/211/62 121/213/62 122/214/62 120/212/62
f 121/213/63 123/215/63 124/216/63 122/214/63
f 123/215/64 125/217/64 126/218/64 124/216/64
f 125/217/53 127/219/53 128/220/53 126/218/53
f 127/219/54 129/221/54 130/222/54 128/220/54
f 129/221/55 131/223/55 132/224/55 130/222/55
f 131/223/65 133/225/65 134/226/65 132/224/65
f 133/225/57 135/227/57 136/228/57 134/226/57
f 135/227/58 113/229/58 114/230/58 136/228/58
f 89/179/66 91/182/66 115/206/66 113/205/66
f 92/181/67 90/180/67 114/208/67 116/207/67
f 91/182/66 93/184/66 117/209/66 115/206/66
f 94/183/67 92/181/67 116/207/67 118/210/67
f 93/184/66 95/186/66 119/211/66 117/209/66
f 96/185/67 94/183/67 118/210/67 120/212/67
f 95/186/66 97/188/66 121/213/66 119/211/66
f 98/187/67 96/185/67 120/212/67 122/214/67
f 97/188/66 99/190/66 123/215/66 121/213/66
f 100/189/67 98/187/67 122/214/67 124/216/67
f 99/190/66 101/192/66 125/217/66 123/215/66
f 102/191/67 100/189/67 124/216/67 126/218/67
f 101/192/66 103/194/66 127/219/66 125/217/66
f 104/193/67 102/191/67 126/218/67 128/220/67
f 103/194/66 105/196/66 129/221/66 127/219/66
f 106/195/67 104/193/67 128/220/67 130/222/67
f 105/196/66 107/198/66 131/223/66 129/221/66
f 108/197/67 106/195/67 130/222/67 132/224/67
f 107/198/66 109/200/66 133/225/66 131/223/66
f 110/199/67 108/197/67 132/224/67 134/226/67
f 109/200/66 111/202/66 135/227/66 133/225/66
f 112/201/67 110/199/67 134/226/67 136/228/67
f 111/202/66 89/204/66 113/229/66 135/227/66
f 90/203/67 112/201/67 136/228/67 114/230/67
