# Blender v2.80 (sub 75) OBJ File: 'shower.blend'
# www.blender.org
mtllib shower.mtl
o Cylinder
v 1.800477 9.668980 -1.000000
v 1.601294 10.251781 -1.000000
v 2.408722 9.876858 -0.766044
v 2.209540 10.459661 -0.766044
v 2.732363 9.987468 -0.173648
v 2.533180 10.570270 -0.173648
v 2.619964 9.949054 0.500000
v 2.420781 10.531856 0.500000
v 2.124118 9.779590 0.939693
v 1.924935 10.362391 0.939693
v 1.476836 9.558370 0.939693
v 1.277653 10.141171 0.939693
v 0.980990 9.388906 0.500000
v 0.781808 9.971707 0.500000
v 0.868591 9.350492 -0.173648
v 0.669408 9.933293 -0.173648
v 1.192232 9.461101 -0.766044
v 0.993049 10.043903 -0.766044
v 1.826211 10.593807 -0.385463
v 1.520151 10.489205 -0.503187
v 1.989063 10.649465 -0.087377
v 1.932505 10.630136 0.251593
v 1.683002 10.544863 0.472841
v 1.357299 10.433548 0.472841
v 1.107796 10.348276 0.251593
v 1.051238 10.328947 -0.087377
v 1.214089 10.384604 -0.385463
vt 1.000000 0.500000
vt 1.000000 1.000000
vt 0.888889 1.000000
vt 0.888889 0.500000
vt 0.777778 1.000000
vt 0.777778 0.500000
vt 0.666667 1.000000
vt 0.666667 0.500000
vt 0.555556 1.000000
vt 0.555556 0.500000
vt 0.444444 1.000000
vt 0.444444 0.500000
vt 0.333333 1.000000
vt 0.333333 0.500000
vt 0.222222 1.000000
vt 0.222222 0.500000
vt 0.000000 1.000000
vt 0.111111 1.000000
vt 0.111111 1.000000
vt 0.000000 1.000000
vt 0.111111 0.500000
vt 0.000000 0.500000
vt 0.750000 0.490000
vt 0.904269 0.433851
vt 0.986354 0.291676
vt 0.957846 0.130000
vt 0.832085 0.024474
vt 0.667915 0.024474
vt 0.542154 0.130000
vt 0.513646 0.291676
vt 0.595731 0.433851
vt 0.404269 0.433851
vt 0.250000 0.490000
vt 0.095731 0.433851
vt 0.013646 0.291676
vt 0.042154 0.130000
vt 0.167915 0.024474
vt 0.332085 0.024474
vt 0.457846 0.130000
vt 0.486354 0.291676
vt 0.222222 1.000000
vt 0.333333 1.000000
vt 0.444444 1.000000
vt 0.555556 1.000000
vt 0.666667 1.000000
vt 1.000000 1.000000
vt 0.888889 1.000000
vt 0.777778 1.000000
vn 0.3236 0.1106 -0.9397
vn 0.8195 0.2801 -0.5000
vn 0.9319 0.3185 0.1736
vn 0.6082 0.2079 0.7660
vn -0.0000 -0.0000 1.0000
vn -0.6082 -0.2079 0.7660
vn -0.9319 -0.3185 0.1736
vn -0.4381 0.7811 -0.4449
vn -0.8195 -0.2801 -0.5000
vn -0.3236 -0.1106 -0.9397
vn 0.3234 -0.9463 -0.0000
vn -0.3234 0.9463 -0.0000
vn -0.6728 0.7009 -0.2367
vn -0.7260 0.6827 0.0822
vn -0.5728 0.7351 0.3627
vn -0.2849 0.8335 0.4734
vn 0.0031 0.9319 0.3627
vn -0.1317 0.8859 -0.4449
vn 0.1563 0.9843 0.0822
vn 0.1031 0.9661 -0.2367
usemtl Metal
s off
f 1/1/1 2/2/1 4/3/1 3/4/1
f 3/4/2 4/3/2 6/5/2 5/6/2
f 5/6/3 6/5/3 8/7/3 7/8/3
f 7/8/4 8/7/4 10/9/4 9/10/4
f 9/10/5 10/9/5 12/11/5 11/12/5
f 11/12/6 12/11/6 14/13/6 13/14/6
f 13/14/7 14/13/7 16/15/7 15/16/7
f 2/17/8 18/18/8 27/19/8 20/20/8
f 15/16/9 16/15/9 18/18/9 17/21/9
f 17/21/10 18/18/10 2/17/10 1/22/10
f 1/23/11 3/24/11 5/25/11 7/26/11 9/27/11 11/28/11 13/29/11 15/30/11 17/31/11
f 19/32/12 20/33/12 27/34/12 26/35/12 25/36/12 24/37/12 23/38/12 22/39/12 21/40/12
f 18/18/13 16/15/13 26/41/13 27/19/13
f 16/15/14 14/13/14 25/42/14 26/41/14
f 14/13/15 12/11/15 24/43/15 25/42/15
f 12/11/16 10/9/16 23/44/16 24/43/16
f 10/9/17 8/7/17 22/45/17 23/44/17
f 4/3/18 2/2/18 20/46/18 19/47/18
f 8/7/19 6/5/19 21/48/19 22/45/19
f 6/5/20 4/3/20 19/47/20 21/48/20
o Cube_Cube.001
v -0.155268 -0.488026 0.155268
v -0.155268 8.068408 0.155268
v -0.155268 -0.488026 -0.155268
v -0.155268 8.068408 -0.155268
v 0.155268 -0.488026 0.155268
v 0.155268 8.068408 0.155268
v 0.155268 -0.488026 -0.155268
v 0.155268 8.068408 -0.155268
vt 0.375000 0.000000
vt 0.625000 0.000000
vt 0.625000 0.250000
vt 0.375000 0.250000
vt 0.625000 0.500000
vt 0.375000 0.500000
vt 0.625000 0.750000
vt 0.375000 0.750000
vt 0.625000 1.000000
vt 0.375000 1.000000
vt 0.125000 0.500000
vt 0.125000 0.750000
vt 0.875000 0.500000
vt 0.875000 0.750000
vn -1.0000 0.0000 0.0000
vn 0.0000 0.0000 -1.0000
vn 1.0000 0.0000 0.0000
vn 0.0000 0.0000 1.0000
vn 0.0000 -1.0000 0.0000
vn 0.0000 1.0000 0.0000
usemtl Metal
s off
f 28/49/21 29/50/21 31/51/21 30/52/21
f 30/52/22 31/51/22 35/53/22 34/54/22
f 34/54/23 35/53/23 33/55/23 32/56/23
f 32/56/24 33/55/24 29/57/24 28/58/24
f 30/59/25 34/54/25 32/56/25 28/60/25
f 35/53/26 31/61/26 29/62/26 33/55/26
o Cube.001_Cube.002
v -0.205631 7.826503 0.155268
v 0.835817 10.016824 0.155268
v -0.205631 7.826503 -0.155268
v 0.835817 10.016824 -0.155268
v 0.074816 7.693156 0.155268
v 1.116264 9.883477 0.155268
v 0.074816 7.693156 -0.155268
v 1.116264 9.883477 -0.155268
vt 0.375000 0.000000
vt 0.625000 0.000000
vt 0.625000 0.250000
vt 0.375000 0.250000
vt 0.625000 0.500000
vt 0.375000 0.500000
vt 0.625000 0.750000
vt 0.375000 0.750000
vt 0.625000 1.000000
vt 0.375000 1.000000
vt 0.125000 0.500000
vt 0.125000 0.750000
vt 0.875000 0.500000
vt 0.875000 0.750000
vn -0.9031 0.4294 0.0000
vn 0.0000 0.0000 -1.0000
vn 0.9031 -0.4294 0.0000
vn 0.0000 0.0000 1.0000
vn -0.4294 -0.9031 0.0000
vn 0.4294 0.9031 0.0000
usemtl Metal
s off
f 36/63/27 37/64/27 39/65/27 38/66/27
f 38/66/28 39/65/28 43/67/28 42/68/28
f 42/68/29 43/67/29 41/69/29 40/70/29
f 40/70/30 41/69/30 37/71/30 36/72/30
f 38/73/31 42/68/31 40/70/31 36/74/31
f 43/67/32 39/75/32 37/76/32 41/69/32
o Cylinder.001
v 0.453461 4.265851 0.453461
v -0.453461 4.265851 0.453461
v 0.453461 4.557331 0.347372
v -0.453461 4.557331 0.347372
v 0.453461 4.712424 0.078743
v -0.453461 4.712424 0.078743
v 0.453461 4.658561 -0.226731
v -0.453461 4.658561 -0.226731
v 0.453461 4.420944 -0.426114
v -0.453461 4.420944 -0.426114
v 0.453461 4.110758 -0.426114
v -0.453461 4.110758 -0.426114
v 0.453461 3.873142 -0.226731
v -0.453461 3.873142 -0.226731
v 0.453461 3.819279 0.078743
v -0.453461 3.819279 0.078743
v 0.453461 3.974372 0.347372
v -0.453461 3.974372 0.347372
vt 1.000000 0.500000
vt 0.888889 0.500000
vt 0.888889 1.000000
vt 1.000000 1.000000
vt 0.777778 0.500000
vt 0.777778 1.000000
vt 0.666667 0.500000
vt 0.666667 1.000000
vt 0.555556 0.500000
vt 0.555556 1.000000
vt 0.444444 0.500000
vt 0.444444 1.000000
vt 0.333333 0.500000
vt 0.333333 1.000000
vt 0.222222 0.500000
vt 0.222222 1.000000
vt 0.404269 0.433851
vt 0.486354 0.291676
vt 0.457846 0.130000
vt 0.332085 0.024474
vt 0.167915 0.024474
vt 0.042154 0.130000
vt 0.013646 0.291676
vt 0.095731 0.433851
vt 0.250000 0.490000
vt 0.111111 0.500000
vt 0.111111 1.000000
vt 0.000000 0.500000
vt 0.000000 1.000000
vt 0.750000 0.490000
vt 0.595731 0.433851
vt 0.513646 0.291676
vt 0.542154 0.130000
vt 0.667915 0.024474
vt 0.832085 0.024474
vt 0.957846 0.130000
vt 0.986354 0.291676
vt 0.904269 0.433851
vn 0.0000 0.3420 0.9397
vn 0.0000 0.8660 0.5000
vn 0.0000 0.9848 -0.1736
vn 0.0000 0.6428 -0.7660
vn 0.0000 -0.0000 -1.0000
vn 0.0000 -0.6428 -0.7660
vn 0.0000 -0.9848 -0.1736
vn -1.0000 -0.0000 0.0000
vn 0.0000 -0.8660 0.5000
vn 0.0000 -0.3420 0.9397
vn 1.0000 0.0000 -0.0000
usemtl Metal
s off
f 44/77/33 46/78/33 47/79/33 45/80/33
f 46/78/34 48/81/34 49/82/34 47/79/34
f 48/81/35 50/83/35 51/84/35 49/82/35
f 50/83/36 52/85/36 53/86/36 51/84/36
f 52/85/37 54/87/37 55/88/37 53/86/37
f 54/87/38 56/89/38 57/90/38 55/88/38
f 56/89/39 58/91/39 59/92/39 57/90/39
f 47/93/40 49/94/40 51/95/40 53/96/40 55/97/40 57/98/40 59/99/40 61/100/40 45/101/40
f 58/91/41 60/102/41 61/103/41 59/92/41
f 60/102/42 44/104/42 45/105/42 61/103/42
f 44/106/43 60/107/43 58/108/43 56/109/43 54/110/43 52/111/43 50/112/43 48/113/43 46/114/43
o Cylinder.002
v 0.270327 4.190606 0.819260
v -0.340645 4.190606 0.819260
v 0.270327 4.386969 0.747790
v -0.340645 4.386969 0.747790
v 0.270327 4.491451 0.566821
v -0.340645 4.491451 0.566821
v 0.270327 4.455165 0.361031
v -0.340645 4.455165 0.361031
v 0.270327 4.295088 0.226711
v -0.340645 4.295088 0.226711
v 0.270327 4.086123 0.226711
v -0.340645 4.086123 0.226711
v 0.270327 3.926047 0.361031
v -0.340645 3.926047 0.361031
v 0.270327 3.889761 0.566821
v -0.340645 3.889761 0.566821
v 0.270327 3.994243 0.747790
v -0.340645 3.994243 0.747790
vt 1.000000 0.500000
vt 0.888889 0.500000
vt 0.888889 1.000000
vt 1.000000 1.000000
vt 0.777778 0.500000
vt 0.777778 1.000000
vt 0.666667 0.500000
vt 0.666667 1.000000
vt 0.555556 0.500000
vt 0.555556 1.000000
vt 0.444444 0.500000
vt 0.444444 1.000000
vt 0.333333 0.500000
vt 0.333333 1.000000
vt 0.222222 0.500000
vt 0.222222 1.000000
vt 0.404269 0.433851
vt 0.486354 0.291676
vt 0.457846 0.130000
vt 0.332085 0.024474
vt 0.167915 0.024474
vt 0.042154 0.130000
vt 0.013646 0.291676
vt 0.095731 0.433851
vt 0.250000 0.490000
vt 0.111111 0.500000
vt 0.111111 1.000000
vt 0.000000 0.500000
vt 0.000000 1.000000
vt 0.750000 0.490000
vt 0.595731 0.433851
vt 0.513646 0.291676
vt 0.542154 0.130000
vt 0.667915 0.024474
vt 0.832085 0.024474
vt 0.957846 0.130000
vt 0.986354 0.291676
vt 0.904269 0.433851
vn 0.0000 0.3420 0.9397
vn 0.0000 0.8660 0.5000
vn 0.0000 0.9848 -0.1736
vn 0.0000 0.6428 -0.7660
vn 0.0000 -0.0000 -1.0000
vn 0.0000 -0.6428 -0.7660
vn 0.0000 -0.9848 -0.1736
vn -1.0000 -0.0000 0.0000
vn 0.0000 -0.8660 0.5000
vn 0.0000 -0.3420 0.9397
vn 1.0000 0.0000 0.0000
usemtl Metal
s off
f 62/115/44 64/116/44 65/117/44 63/118/44
f 64/116/45 66/119/45 67/120/45 65/117/45
f 66/119/46 68/121/46 69/122/46 67/120/46
f 68/121/47 70/123/47 71/124/47 69/122/47
f 70/123/48 72/125/48 73/126/48 71/124/48
f 72/125/49 74/127/49 75/128/49 73/126/49
f 74/127/50 76/129/50 77/130/50 75/128/50
f 65/131/51 67/132/51 69/133/51 71/134/51 73/135/51 75/136/51 77/137/51 79/138/51 63/139/51
f 76/129/52 78/140/52 79/141/52 77/130/52
f 78/140/53 62/142/53 63/143/53 79/141/53
f 62/144/54 78/145/54 76/146/54 74/147/54 72/148/54 70/149/54 68/150/54 66/151/54 64/152/54
o Cylinder.003
v 0.270327 4.157691 -0.302483
v -0.340645 4.157691 -0.302483
v 0.270327 4.354053 -0.373953
v -0.340645 4.354053 -0.373953
v 0.270327 4.458536 -0.554922
v -0.340645 4.458536 -0.554922
v 0.270327 4.422249 -0.760712
v -0.340645 4.422249 -0.760712
v 0.270327 4.262173 -0.895032
v -0.340645 4.262173 -0.895032
v 0.270327 4.053208 -0.895032
v -0.340645 4.053208 -0.895032
v 0.270327 3.893132 -0.760712
v -0.340645 3.893132 -0.760712
v 0.270327 3.856846 -0.554922
v -0.340645 3.856845 -0.554922
v 0.270327 3.961328 -0.373953
v -0.340645 3.961328 -0.373953
vt 1.000000 0.500000
vt 0.888889 0.500000
vt 0.888889 1.000000
vt 1.000000 1.000000
vt 0.777778 0.500000
vt 0.777778 1.000000
vt 0.666667 0.500000
vt 0.666667 1.000000
vt 0.555556 0.500000
vt 0.555556 1.000000
vt 0.444444 0.500000
vt 0.444444 1.000000
vt 0.333333 0.500000
vt 0.333333 1.000000
vt 0.222222 0.500000
vt 0.222222 1.000000
vt 0.404269 0.433851
vt 0.486354 0.291676
vt 0.457846 0.130000
vt 0.332085 0.024474
vt 0.167915 0.024474
vt 0.042154 0.130000
vt 0.013646 0.291676
vt 0.095731 0.433851
vt 0.250000 0.490000
vt 0.111111 0.500000
vt 0.111111 1.000000
vt 0.000000 0.500000
vt 0.000000 1.000000
vt 0.750000 0.490000
vt 0.595731 0.433851
vt 0.513646 0.291676
vt 0.542154 0.130000
vt 0.667915 0.024474
vt 0.832085 0.024474
vt 0.957846 0.130000
vt 0.986354 0.291676
vt 0.904269 0.433851
vn 0.0000 0.3420 0.9397
vn 0.0000 0.8660 0.5000
vn 0.0000 0.9848 -0.1736
vn 0.0000 0.6428 -0.7660
vn 0.0000 -0.0000 -1.0000
vn 0.0000 -0.6428 -0.7660
vn 0.0000 -0.9848 -0.1736
vn -1.0000 -0.0000 0.0000
vn 0.0000 -0.8660 0.5000
vn 0.0000 -0.3420 0.9397
vn 1.0000 0.0000 -0.0000
usemtl Metal
s off
f 80/153/55 82/154/55 83/155/55 81/156/55
f 82/154/56 84/157/56 85/158/56 83/155/56
f 84/157/57 86/159/57 87/160/57 85/158/57
f 86/159/58 88/161/58 89/162/58 87/160/58
f 88/161/59 90/163/59 91/164/59 89/162/59
f 90/163/60 92/165/60 93/166/60 91/164/60
f 92/165/61 94/167/61 95/168/61 93/166/61
f 83/169/62 85/170/62 87/171/62 89/172/62 91/173/62 93/174/62 95/175/62 97/176/62 81/177/62
f 94/167/63 96/178/63 97/179/63 95/168/63
f 96/178/64 80/180/64 81/181/64 97/179/64
f 80/182/65 96/183/65 94/184/65 92/185/65 90/186/65 88/187/65 86/188/65 84/189/65 82/190/65
o Cylinder.004
v 0.446777 4.157691 -0.406955
v 0.044750 4.157691 -0.406955
v 0.446777 4.286900 -0.453983
v 0.044750 4.286900 -0.453983
v 0.446777 4.355650 -0.573063
v 0.044750 4.355650 -0.573063
v 0.446777 4.331773 -0.708475
v 0.044750 4.331773 -0.708475
v 0.446777 4.226441 -0.796860
v 0.044750 4.226441 -0.796860
v 0.446777 4.088940 -0.796860
v 0.044750 4.088940 -0.796860
v 0.446777 3.983608 -0.708475
v 0.044750 3.983608 -0.708475
v 0.446777 3.959731 -0.573063
v 0.044750 3.959731 -0.573063
v 0.446777 4.028481 -0.453983
v 0.044750 4.028481 -0.453983
vt 1.000000 0.500000
vt 0.888889 0.500000
vt 0.888889 1.000000
vt 1.000000 1.000000
vt 0.777778 0.500000
vt 0.777778 1.000000
vt 0.666667 0.500000
vt 0.666667 1.000000
vt 0.555556 0.500000
vt 0.555556 1.000000
vt 0.444444 0.500000
vt 0.444444 1.000000
vt 0.333333 0.500000
vt 0.333333 1.000000
vt 0.222222 0.500000
vt 0.222222 1.000000
vt 0.404269 0.433851
vt 0.486354 0.291676
vt 0.457846 0.130000
vt 0.332085 0.024474
vt 0.167915 0.024474
vt 0.042154 0.130000
vt 0.013646 0.291676
vt 0.095731 0.433851
vt 0.250000 0.490000
vt 0.111111 0.500000
vt 0.111111 1.000000
vt 0.000000 0.500000
vt 0.000000 1.000000
vt 0.750000 0.490000
vt 0.595731 0.433851
vt 0.513646 0.291676
vt 0.542154 0.130000
vt 0.667915 0.024474
vt 0.832085 0.024474
vt 0.957846 0.130000
vt 0.986354 0.291676
vt 0.904269 0.433851
vn 0.0000 0.3420 0.9397
vn 0.0000 0.8660 0.5000
vn 0.0000 0.9848 -0.1736
vn 0.0000 0.6428 -0.7660
vn 0.0000 0.0000 -1.0000
vn 0.0000 -0.6428 -0.7660
vn 0.0000 -0.9848 -0.1736
vn -1.0000 -0.0000 0.0000
vn 0.0000 -0.8660 0.5000
vn 0.0000 -0.3420 0.9397
vn 1.0000 0.0000 0.0000
usemtl Red
s off
f 98/191/66 100/192/66 101/193/66 99/194/66
f 100/192/67 102/195/67 103/196/67 101/193/67
f 102/195/68 104/197/68 105/198/68 103/196/68
f 104/197/69 106/199/69 107/200/69 105/198/69
f 106/199/70 108/201/70 109/202/70 107/200/70
f 108/201/71 110/203/71 111/204/71 109/202/71
f 110/203/72 112/205/72 113/206/72 111/204/72
f 101/207/73 103/208/73 105/209/73 107/210/73 109/211/73 111/212/73 113/213/73 115/214/73 99/215/73
f 112/205/74 114/216/74 115/217/74 113/206/74
f 114/216/75 98/218/75 99/219/75 115/217/75
f 98/220/76 114/221/76 112/222/76 110/223/76 108/224/76 106/225/76 104/226/76 102/227/76 100/228/76
o Cylinder.005
v 0.446563 4.190742 0.739044
v 0.044536 4.190742 0.739044
v 0.446563 4.319951 0.692016
v 0.044536 4.319951 0.692016
v 0.446563 4.388701 0.572936
v 0.044536 4.388701 0.572936
v 0.446563 4.364824 0.437524
v 0.044536 4.364824 0.437524
v 0.446563 4.259492 0.349139
v 0.044536 4.259492 0.349139
v 0.446563 4.121991 0.349139
v 0.044536 4.121991 0.349139
v 0.446563 4.016659 0.437524
v 0.044536 4.016659 0.437524
v 0.446563 3.992782 0.572936
v 0.044536 3.992782 0.572936
v 0.446563 4.061532 0.692016
v 0.044536 4.061532 0.692016
vt 1.000000 0.500000
vt 0.888889 0.500000
vt 0.888889 1.000000
vt 1.000000 1.000000
vt 0.777778 0.500000
vt 0.777778 1.000000
vt 0.666667 0.500000
vt 0.666667 1.000000
vt 0.555556 0.500000
vt 0.555556 1.000000
vt 0.444444 0.500000
vt 0.444444 1.000000
vt 0.333333 0.500000
vt 0.333333 1.000000
vt 0.222222 0.500000
vt 0.222222 1.000000
vt 0.404269 0.433851
vt 0.486354 0.291676
vt 0.457846 0.130000
vt 0.332085 0.024474
vt 0.167915 0.024474
vt 0.042154 0.130000
vt 0.013646 0.291676
vt 0.095731 0.433851
vt 0.250000 0.490000
vt 0.111111 0.500000
vt 0.111111 1.000000
vt 0.000000 0.500000
vt 0.000000 1.000000
vt 0.750000 0.490000
vt 0.595731 0.433851
vt 0.513646 0.291676
vt 0.542154 0.130000
vt 0.667915 0.024474
vt 0.832085 0.024474
vt 0.957846 0.130000
vt 0.986354 0.291676
vt 0.904269 0.433851
vn 0.0000 0.3420 0.9397
vn 0.0000 0.8660 0.5000
vn 0.0000 0.9848 -0.1736
vn 0.0000 0.6428 -0.7660
vn 0.0000 0.0000 -1.0000
vn 0.0000 -0.6428 -0.7660
vn 0.0000 -0.9848 -0.1736
vn -1.0000 -0.0000 0.0000
vn 0.0000 -0.8660 0.5000
vn 0.0000 -0.3420 0.9397
vn 1.0000 0.0000 0.0000
usemtl Blue
s off
f 116/229/77 118/230/77 119/231/77 117/232/77
f 118/230/78 120/233/78 121/234/78 119/231/78
f 120/233/79 122/235/79 123/236/79 121/234/79
f 122/235/80 124/237/80 125/238/80 123/236/80
f 124/237/81 126/239/81 127/240/81 125/238/81
f 126/239/82 128/241/82 129/242/82 127/240/82
f 128/241/83 130/243/83 131/244/83 129/242/83
f 119/245/84 121/246/84 123/247/84 125/248/84 127/249/84 129/250/84 131/251/84 133/252/84 117/253/84
f 130/243/85 132/254/85 133/255/85 131/244/85
f 132/254/86 116/256/86 117/257/86 133/255/86
f 116/258/87 132/259/87 130/260/87 128/261/87 126/262/87 124/263/87 122/264/87 120/265/87 118/266/87
