# Blender v2.80 (sub 75) OBJ File: 'ghettoblast.blend'
# www.blender.org
mtllib ghettoblast.mtl
o Cube
v 0.672165 1.093902 -0.758329
v 0.672165 1.093902 -2.758329
v 0.672165 -1.093902 -0.758329
v 0.672165 -1.093902 -2.758329
v -0.672165 1.093902 -0.758329
v -0.672165 1.093902 -2.758329
v -0.672165 -1.093902 -0.758329
v -0.672165 -1.093902 -2.758329
vt 0.375000 0.000000
vt 0.625000 0.000000
vt 0.625000 0.250000
vt 0.375000 0.250000
vt 0.375000 0.250000
vt 0.625000 0.250000
vt 0.625000 0.500000
vt 0.375000 0.500000
vt 0.625000 0.750000
vt 0.375000 0.750000
vt 0.625000 0.750000
vt 0.625000 1.000000
vt 0.375000 1.000000
vt 0.125000 0.500000
vt 0.375000 0.500000
vt 0.375000 0.750000
vt 0.125000 0.750000
vt 0.625000 0.500000
vt 0.875000 0.500000
vt 0.875000 0.750000
vn 0.0000 -0.0000 1.0000
vn 0.0000 -1.0000 0.0000
vn -1.0000 0.0000 0.0000
vn 0.0000 0.0000 -1.0000
vn 1.0000 0.0000 0.0000
vn 0.0000 1.0000 0.0000
usemtl hp
s off
f 1/1/1 5/2/1 7/3/1 3/4/1
f 4/5/2 3/6/2 7/7/2 8/8/2
f 8/8/3 7/7/3 5/9/3 6/10/3
f 6/10/4 2/11/4 4/12/4 8/13/4
f 2/14/5 1/15/5 3/16/5 4/17/5
f 6/18/6 5/19/6 1/20/6 2/11/6
o Cube.001
v 0.597491 1.025438 -0.748406
v 0.597491 1.025438 0.871456
v 0.597492 -1.025438 -0.748406
v 0.597492 -1.025438 0.871456
v -0.597492 1.025438 -0.748406
v -0.597492 1.025438 0.871456
v -0.597491 -1.025438 -0.748406
v -0.597491 -1.025438 0.871456
vt 0.375000 0.000000
vt 0.625000 0.000000
vt 0.625000 0.250000
vt 0.375000 0.250000
vt 0.625000 0.500000
vt 0.375000 0.500000
vt 0.625000 0.750000
vt 0.375000 0.750000
vt 0.625000 1.000000
vt 0.375000 1.000000
vt 0.125000 0.500000
vt 0.125000 0.750000
vt 0.875000 0.500000
vt 0.875000 0.750000
vn 1.0000 0.0000 0.0000
vn 0.0000 -1.0000 0.0000
vn -1.0000 -0.0000 0.0000
vn -0.0000 1.0000 0.0000
vn -0.0000 0.0000 -1.0000
vn 0.0000 0.0000 1.0000
usemtl milieu
s off
f 9/21/7 10/22/7 12/23/7 11/24/7
f 11/24/8 12/23/8 16/25/8 15/26/8
f 15/26/9 16/25/9 14/27/9 13/28/9
f 13/28/10 14/27/10 10/29/10 9/30/10
f 11/31/11 15/26/11 13/28/11 9/32/11
f 16/25/12 12/33/12 10/34/12 14/27/12
o Cube.002
v 0.672165 1.093902 2.766075
v 0.672165 1.093902 0.766075
v 0.672165 -1.093902 2.766075
v 0.672165 -1.093902 0.766075
v -0.672165 1.093902 2.766075
v -0.672165 1.093902 0.766075
v -0.672165 -1.093902 2.766075
v -0.672165 -1.093902 0.766075
vt 0.375000 0.000000
vt 0.625000 0.000000
vt 0.625000 0.250000
vt 0.375000 0.250000
vt 0.375000 0.250000
vt 0.625000 0.250000
vt 0.625000 0.500000
vt 0.375000 0.500000
vt 0.625000 0.750000
vt 0.375000 0.750000
vt 0.625000 0.750000
vt 0.625000 1.000000
vt 0.375000 1.000000
vt 0.125000 0.500000
vt 0.375000 0.500000
vt 0.375000 0.750000
vt 0.125000 0.750000
vt 0.625000 0.500000
vt 0.875000 0.500000
vt 0.875000 0.750000
vn 0.0000 0.0000 1.0000
vn 0.0000 -1.0000 0.0000
vn -1.0000 0.0000 0.0000
vn 0.0000 0.0000 -1.0000
vn 1.0000 0.0000 0.0000
vn 0.0000 1.0000 0.0000
usemtl hp.001
s off
f 17/35/13 21/36/13 23/37/13 19/38/13
f 20/39/14 19/40/14 23/41/14 24/42/14
f 24/42/15 23/41/15 21/43/15 22/44/15
f 22/44/16 18/45/16 20/46/16 24/47/16
f 18/48/17 17/49/17 19/50/17 20/51/17
f 22/52/18 21/53/18 17/54/18 18/45/18
o Cube.003
v -0.144878 1.410665 1.148906
v -0.144878 1.658548 1.148906
v -0.144878 1.410665 -1.148906
v -0.144878 1.658548 -1.148906
v 0.144878 1.410665 1.148906
v 0.144878 1.658548 1.148906
v 0.144878 1.410665 -1.148906
v 0.144878 1.658548 -1.148906
vt 0.375000 0.000000
vt 0.625000 0.000000
vt 0.625000 0.250000
vt 0.375000 0.250000
vt 0.625000 0.500000
vt 0.375000 0.500000
vt 0.625000 0.750000
vt 0.375000 0.750000
vt 0.625000 1.000000
vt 0.375000 1.000000
vt 0.125000 0.500000
vt 0.125000 0.750000
vt 0.875000 0.500000
vt 0.875000 0.750000
vn -1.0000 0.0000 0.0000
vn 0.0000 0.0000 -1.0000
vn 1.0000 0.0000 0.0000
vn 0.0000 0.0000 1.0000
vn 0.0000 -1.0000 0.0000
vn 0.0000 1.0000 0.0000
usemtl Material
s off
f 25/55/19 26/56/19 28/57/19 27/58/19
f 27/58/20 28/57/20 32/59/20 31/60/20
f 31/60/21 32/59/21 30/61/21 29/62/21
f 29/62/22 30/61/22 26/63/22 25/64/22
f 27/65/23 31/60/23 29/62/23 25/66/23
f 32/59/24 28/67/24 26/68/24 30/61/24
o Cube.004
v -0.144878 -0.356251 0.878933
v -0.144878 -0.356251 1.126816
v -0.144878 1.643749 0.878933
v -0.144878 1.643749 1.126816
v 0.144878 -0.356251 0.878933
v 0.144878 -0.356251 1.126816
v 0.144878 1.643749 0.878933
v 0.144878 1.643749 1.126816
vt 0.375000 0.000000
vt 0.625000 0.000000
vt 0.625000 0.250000
vt 0.375000 0.250000
vt 0.625000 0.500000
vt 0.375000 0.500000
vt 0.625000 0.750000
vt 0.375000 0.750000
vt 0.625000 1.000000
vt 0.375000 1.000000
vt 0.125000 0.500000
vt 0.125000 0.750000
vt 0.875000 0.500000
vt 0.875000 0.750000
vn -1.0000 0.0000 0.0000
vn 0.0000 1.0000 0.0000
vn 1.0000 0.0000 0.0000
vn 0.0000 -1.0000 0.0000
vn 0.0000 0.0000 -1.0000
vn 0.0000 -0.0000 1.0000
usemtl Material.001
s off
f 33/69/25 34/70/25 36/71/25 35/72/25
f 35/72/26 36/71/26 40/73/26 39/74/26
f 39/74/27 40/73/27 38/75/27 37/76/27
f 37/76/28 38/75/28 34/77/28 33/78/28
f 35/79/29 39/74/29 37/76/29 33/80/29
f 40/73/30 36/81/30 34/82/30 38/75/30
o Cube.005
v -0.144878 -0.356251 -1.118879
v -0.144878 -0.356251 -0.870996
v -0.144878 1.643749 -1.118879
v -0.144878 1.643749 -0.870996
v 0.144878 -0.356251 -1.118879
v 0.144878 -0.356251 -0.870996
v 0.144878 1.643749 -1.118879
v 0.144878 1.643749 -0.870996
vt 0.375000 0.000000
vt 0.625000 0.000000
vt 0.625000 0.250000
vt 0.375000 0.250000
vt 0.625000 0.500000
vt 0.375000 0.500000
vt 0.625000 0.750000
vt 0.375000 0.750000
vt 0.625000 1.000000
vt 0.375000 1.000000
vt 0.125000 0.500000
vt 0.125000 0.750000
vt 0.875000 0.500000
vt 0.875000 0.750000
vn -1.0000 0.0000 0.0000
vn 0.0000 1.0000 0.0000
vn 1.0000 0.0000 0.0000
vn 0.0000 -1.0000 0.0000
vn 0.0000 0.0000 -1.0000
vn 0.0000 -0.0000 1.0000
usemtl Material.002
s off
f 41/83/31 42/84/31 44/85/31 43/86/31
f 43/86/32 44/85/32 48/87/32 47/88/32
f 47/88/33 48/87/33 46/89/33 45/90/33
f 45/90/34 46/89/34 42/91/34 41/92/34
f 43/93/35 47/88/35 45/90/35 41/94/35
f 48/87/36 44/95/36 42/96/36 46/89/36
