# Blender v2.80 (sub 75) OBJ File: 'head.blend'
# www.blender.org
mtllib head.mtl
o Cube
v 1.000000 2.716314 -1.000000
v 1.000000 -0.059761 -0.785427
v 1.000000 2.716314 1.000000
v 1.000000 -0.059761 0.785427
v -1.000000 2.716314 -1.000000
v -1.000000 -0.059761 -0.785427
v -1.000000 2.716314 1.000000
v -1.000000 -0.059761 0.785427
vt 0.380906 0.744141
vt 0.630906 0.744141
vt 0.630906 0.994141
vt 0.380906 0.994141
vt 0.884859 0.496078
vt 0.884859 0.746078
vt 0.634859 0.746078
vt 0.634859 0.496078
vt 0.625000 0.500000
vt 0.625000 0.750000
vt 0.375000 0.750000
vt 0.375000 0.500000
vt 0.375000 0.750000
vt 0.625000 0.750000
vt 0.625000 1.000000
vt 0.375000 1.000000
vt 0.375015 0.249969
vt 0.375015 -0.000031
vt 0.625015 -0.000031
vt 0.625015 0.249969
vt 0.371032 0.494094
vt 0.371032 0.744094
vt 0.121032 0.744094
vt 0.121032 0.494094
vn 0.0000 1.0000 0.0000
vn 0.0000 -0.0771 0.9970
vn -1.0000 0.0000 0.0000
vn 0.0000 -1.0000 0.0000
vn 1.0000 0.0000 0.0000
vn 0.0000 -0.0771 -0.9970
usemtl Material
s off
f 1/1/1 5/2/1 7/3/1 3/4/1
f 4/5/2 3/6/2 7/7/2 8/8/2
f 8/9/3 7/10/3 5/11/3 6/12/3
f 6/13/4 2/14/4 4/15/4 8/16/4
f 2/17/5 1/18/5 3/19/5 4/20/5
f 6/21/6 5/22/6 1/23/6 2/24/6
o Cube.001
v -1.233431 2.082019 0.926944
v -1.233431 2.419004 0.926944
v -1.233431 2.082019 -0.926944
v -1.233431 2.419004 -0.926944
v -0.784527 2.082019 0.926944
v -0.784527 2.419004 0.926944
v -0.784527 2.082019 -0.926944
v -0.784527 2.419004 -0.926944
vt 0.375000 0.000000
vt 0.625000 0.000000
vt 0.625000 0.250000
vt 0.375000 0.250000
vt 0.625000 0.500000
vt 0.375000 0.500000
vt 0.625000 0.750000
vt 0.375000 0.750000
vt 0.625000 1.000000
vt 0.375000 1.000000
vt 0.125000 0.500000
vt 0.125000 0.750000
vt 0.875000 0.500000
vt 0.875000 0.750000
vn -1.0000 0.0000 0.0000
vn 0.0000 0.0000 -1.0000
vn 1.0000 0.0000 0.0000
vn 0.0000 0.0000 1.0000
vn 0.0000 -1.0000 0.0000
vn 0.0000 1.0000 0.0000
usemtl chairfonce
s off
f 9/25/7 10/26/7 12/27/7 11/28/7
f 11/28/8 12/27/8 16/29/8 15/30/8
f 15/30/9 16/29/9 14/31/9 13/32/9
f 13/32/10 14/31/10 10/33/10 9/34/10
f 11/35/11 15/30/11 13/32/11 9/36/11
f 16/29/12 12/37/12 10/38/12 14/31/12
o Cube.002
v -1.233431 0.762853 -0.299933
v -1.233431 0.762853 0.299933
v -1.233431 2.250693 -0.299933
v -1.233431 2.250693 0.299933
v -0.784527 0.762853 -0.299933
v -0.784527 0.762853 0.299933
v -0.784527 2.250693 -0.299933
v -0.784527 2.250693 0.299933
vt 0.375000 0.000000
vt 0.625000 0.000000
vt 0.625000 0.250000
vt 0.375000 0.250000
vt 0.625000 0.500000
vt 0.375000 0.500000
vt 0.625000 0.750000
vt 0.375000 0.750000
vt 0.625000 1.000000
vt 0.375000 1.000000
vt 0.125000 0.500000
vt 0.125000 0.750000
vt 0.875000 0.500000
vt 0.875000 0.750000
vn -1.0000 0.0000 0.0000
vn 0.0000 1.0000 0.0000
vn 1.0000 0.0000 0.0000
vn 0.0000 -1.0000 0.0000
vn 0.0000 0.0000 -1.0000
vn 0.0000 -0.0000 1.0000
usemtl chairfonce.001
s off
f 17/39/13 18/40/13 20/41/13 19/42/13
f 19/42/14 20/41/14 24/43/14 23/44/14
f 23/44/15 24/43/15 22/45/15 21/46/15
f 21/46/16 22/45/16 18/47/16 17/48/16
f 19/49/17 23/44/17 21/46/17 17/50/17
f 24/43/18 20/51/18 18/52/18 22/45/18
o Cube.003
v -1.000000 3.102913 1.000000
v -0.656816 4.140999 0.656816
v -1.000000 3.102913 -1.000000
v -0.656816 4.140999 -0.656816
v 1.000000 3.102913 1.000000
v 0.656816 4.140999 0.656816
v 1.000000 3.102913 -1.000000
v 0.656816 4.140999 -0.656816
vt 0.375000 0.000000
vt 0.625000 0.000000
vt 0.625000 0.250000
vt 0.375000 0.250000
vt 0.625000 0.500000
vt 0.375000 0.500000
vt 0.625000 0.750000
vt 0.375000 0.750000
vt 0.625000 1.000000
vt 0.375000 1.000000
vt 0.125000 0.500000
vt 0.125000 0.750000
vt 0.875000 0.500000
vt 0.875000 0.750000
vn -0.9495 0.3139 0.0000
vn 0.0000 0.3139 -0.9495
vn 0.9495 0.3139 0.0000
vn 0.0000 0.3139 0.9495
vn 0.0000 -1.0000 0.0000
vn 0.0000 1.0000 0.0000
usemtl bonnet
s off
f 25/53/19 26/54/19 28/55/19 27/56/19
f 27/56/20 28/55/20 32/57/20 31/58/20
f 31/58/21 32/57/21 30/59/21 29/60/21
f 29/60/22 30/59/22 26/61/22 25/62/22
f 27/63/23 31/58/23 29/60/23 25/64/23
f 32/57/24 28/65/24 26/66/24 30/59/24
o Cube.004
v -1.256945 2.556976 -1.111442
v -1.256945 2.556976 1.111442
v -1.256945 3.215787 -1.111442
v -1.256945 3.215787 1.111442
v 1.256945 2.556976 -1.111442
v 1.256945 2.556976 1.111442
v 1.256945 3.215787 -1.111442
v 1.256945 3.215787 1.111442
vt 0.375000 0.000000
vt 0.625000 0.000000
vt 0.625000 0.250000
vt 0.375000 0.250000
vt 0.625000 0.500000
vt 0.375000 0.500000
vt 0.625000 0.750000
vt 0.375000 0.750000
vt 0.625000 1.000000
vt 0.375000 1.000000
vt 0.125000 0.500000
vt 0.125000 0.750000
vt 0.875000 0.500000
vt 0.875000 0.750000
vn -1.0000 0.0000 0.0000
vn 0.0000 1.0000 0.0000
vn 1.0000 0.0000 0.0000
vn 0.0000 -1.0000 0.0000
vn 0.0000 0.0000 -1.0000
vn 0.0000 0.0000 1.0000
usemtl bonnet.001
s off
f 33/67/25 34/68/25 36/69/25 35/70/25
f 35/70/26 36/69/26 40/71/26 39/72/26
f 39/72/27 40/71/27 38/73/27 37/74/27
f 37/74/28 38/73/28 34/75/28 33/76/28
f 35/77/29 39/72/29 37/74/29 33/78/29
f 40/71/30 36/79/30 34/80/30 38/73/30
o Cube.005
v -1.391985 2.592470 0.818866
v -1.391985 2.918096 0.905625
v -1.391985 2.826149 -0.058189
v -1.391985 3.151775 0.028569
v -0.943081 2.592470 0.818866
v -0.943081 2.918096 0.905625
v -0.943081 2.826149 -0.058189
v -0.943081 3.151775 0.028569
vt 0.375000 0.000000
vt 0.625000 0.000000
vt 0.625000 0.250000
vt 0.375000 0.250000
vt 0.625000 0.500000
vt 0.375000 0.500000
vt 0.625000 0.750000
vt 0.375000 0.750000
vt 0.625000 1.000000
vt 0.375000 1.000000
vt 0.125000 0.500000
vt 0.125000 0.750000
vt 0.875000 0.500000
vt 0.875000 0.750000
vn -1.0000 -0.0000 0.0000
vn 0.0000 0.2575 -0.9663
vn 1.0000 -0.0000 0.0000
vn 0.0000 -0.2575 0.9663
vn 0.0000 -0.9663 -0.2575
vn 0.0000 0.9663 0.2575
usemtl Material.001
s off
f 41/81/31 42/82/31 44/83/31 43/84/31
f 43/84/32 44/83/32 48/85/32 47/86/32
f 47/86/33 48/85/33 46/87/33 45/88/33
f 45/88/34 46/87/34 42/89/34 41/90/34
f 43/91/35 47/86/35 45/88/35 41/92/35
f 48/85/36 44/93/36 42/94/36 46/87/36
o Cube.006
v -1.391985 2.690544 -0.215548
v -1.391985 3.023452 -0.258394
v -1.391985 2.606670 -0.867232
v -1.391985 2.939579 -0.910078
v -0.943081 2.690544 -0.215548
v -0.943081 3.023452 -0.258394
v -0.943081 2.606670 -0.867232
v -0.943081 2.939579 -0.910078
vt 0.375000 0.000000
vt 0.625000 0.000000
vt 0.625000 0.250000
vt 0.375000 0.250000
vt 0.625000 0.500000
vt 0.375000 0.500000
vt 0.625000 0.750000
vt 0.375000 0.750000
vt 0.625000 1.000000
vt 0.375000 1.000000
vt 0.125000 0.500000
vt 0.125000 0.750000
vt 0.875000 0.500000
vt 0.875000 0.750000
vn -1.0000 0.0000 0.0000
vn 0.0000 -0.1276 -0.9918
vn 1.0000 -0.0000 0.0000
vn 0.0000 0.1276 0.9918
vn 0.0000 -0.9918 0.1276
vn 0.0000 0.9918 -0.1276
usemtl Material.002
s off
f 49/95/37 50/96/37 52/97/37 51/98/37
f 51/98/38 52/97/38 56/99/38 55/100/38
f 55/100/39 56/99/39 54/101/39 53/102/39
f 53/102/40 54/101/40 50/103/40 49/104/40
f 51/105/41 55/100/41 53/102/41 49/106/41
f 56/99/42 52/107/42 50/108/42 54/101/42
